<svg xmlns="http://www.w3.org/2000/svg" xmlns:xlink="http://www.w3.org/1999/xlink" id="Graphics" x="0" y="0" version="1.1" viewBox="0 0 500 278.7" xml:space="preserve" style="enable-background:new 0 0 500 278.7"><style type="text/css">.st0{fill:#f0f1f3}.st1{fill:#00c671}.st2{opacity:.2}.st3{fill:#191c3c}.st4{opacity:8.000000e-02;fill:#f5f7f9;enable-background:new}.st5{fill:#1e2022}.st6{fill:#d4dbe3}.st7{fill:#00c9a7}.st8{fill:none;stroke:#191c3c;stroke-width:.4145;stroke-miterlimit:10}.st9{fill:#7783a0}.st10{fill:#3a3c4e}.st11{fill:#fec55e}.st12{fill:#db3f32}.st13{opacity:.3;fill:#191c3c;enable-background:new}.st14{fill:#de4437}.st15{fill:url(#SVGID_1_)}.st16{fill:url(#SVGID_2_)}.st17{fill:url(#SVGID_3_)}.st18{fill:#fff}.st19{opacity:.3}.st20{fill:#41446b}.st21{opacity:.1;fill:#191c3c;enable-background:new}.st22{fill:#d8ed96}.st23{fill:#d4dee8}.st24{fill:url(#SVGID_4_)}.st25{fill:#d1d3db}.st26{fill:#377dff}.st27{fill:#2d1582}.st28{fill:#474963}.st29{fill:#4d5068}.st30{opacity:.17;fill:#191c3c;enable-background:new}.st31{opacity:.11}.st32{fill:#dae1e9}.st33,.st34{fill:none;stroke:#dae1e9;stroke-width:.5;stroke-miterlimit:10}.st34{stroke-width:1.5}.st35{fill:#e4edf7}.st36{opacity:.3;fill:#dae1e9;enable-background:new}.st37{fill:none;stroke:#dae1e9;stroke-width:.4899;stroke-miterlimit:10}.st38{opacity:.2;fill:#aab2ba;enable-background:new}.st39{fill:#fed17e}.st40{fill:#e0a546}.st41{fill:#19a0ff}.st42{fill:#dd9c3e}.st43{fill:#bf9447}.st44,.st45{opacity:.1;fill:#3a3c4e;enable-background:new}.st45{opacity:.2}</style><rect width="500" height="278.7" class="st0"/><g id="Layer_13_3_"><g><path d="M410.1,122.7L410.1,122.7C410.1,122.7,410,122.8,410.1,122.7z M411.4,121.5c-1.3-1.3-2.9-2.5-4.7-3 c-1.8-0.5-3.9-0.3-5.4,0.7c2.3,2.4,5.6,3.7,8.8,3.5c0.5,0,1.9,0.1,2.3-0.2c0.1-0.1-0.2-0.4-0.5-0.7 C411.8,121.8,411.5,121.6,411.4,121.5z" class="st1"/><g class="st2"><path d="M411.9,121.9c-0.1-0.1-0.4-0.3-0.5-0.4c-1.3-1.3-2.9-2.5-4.7-3c-0.9-0.2-1.8-0.3-2.7-0.2c1,0,2.1,0.3,3,0.8 c1.6,0.8,2.9,2.2,4,3.7c0.5,0,1.2-0.1,1.4-0.2C412.5,122.5,412.2,122.1,411.9,121.9z" class="st3"/></g><path d="M412.9,118.7c0.3,0.8,0.6,1.9,0.3,2.6c-0.2,0.6-0.7,1.4-1.3,1.3c-0.5-0.6-1.5-1.9-2.1-2.4 c-0.5-0.4-1.3-0.9-1.8-1.3c-1.3-1.1-1.7-2.7-2.4-4.2c1.3,0.1,2.5,0.4,3.8,0.7c0.8,0.2,1.6,0.5,2.2,1.1 C412.3,117,412.7,117.8,412.9,118.7z" class="st1"/><path d="M410.2,120.2c-0.4-0.5-1.2-1.1-1.6-1.6c-0.9-1.1-1.2-2.4-1.5-3.8c-0.5-0.1-1-0.2-1.6-0.2 c0.7,1.6,1.2,3.1,2.4,4.2c0.5,0.5,1.3,0.9,1.8,1.3c0.3,0.2,0.7,0.7,1,1.1C410.7,120.8,410.4,120.4,410.2,120.2z" class="st4"/><path d="M413.6,114.6c0.4,1.2,0.4,2.4,0.4,3.7c0,0.5,0.1,1.3,0,1.7c-0.1,0.4-0.3,0.8-0.6,1.1 c-0.2,0.3-0.4-0.1-0.6-0.3c-0.2-0.3-0.5-0.7-0.3-0.6c-0.2-0.7-0.3-1.2-0.5-1.9c-0.2-0.6-0.4-1.1-0.5-1.7c-0.2-1.4,0-2.9,0.3-4.3 C412.6,112.9,413.2,113.7,413.6,114.6z" class="st1"/><g><path d="M402.2,119.4c1.6-0.1,3.2,0,4.8,0.4c1.5,0.4,2.8,1.1,4.1,2.1c0.1,0.1,0.1-0.1,0.1-0.1 c-1.2-0.9-2.6-1.6-4.1-2C405.4,119.3,403.8,119.3,402.2,119.4L402.2,119.4L402.2,119.4z" class="st5"/></g><g><path d="M406.1,115.1c1.3,0.6,2.5,1.4,3.5,2.4c1.1,1.1,1.9,2.4,2.7,3.7h0.1C411,118.5,409,116.3,406.1,115.1 L406.1,115.1L406.1,115.1z" class="st5"/></g><g><path d="M411.9,112.8c0.9,2.5,1.9,5,1.3,7.7c0,0.1,0.1,0.1,0.1,0C413.8,117.9,413,115.2,411.9,112.8L411.9,112.8 L411.9,112.8z" class="st5"/></g><g><path d="M403.4,120.4c0.2-0.2,0.3-0.4,0.5-0.5c0.2-0.2,0.4-0.3,0.6-0.4l0,0C404.1,119.6,403.6,119.9,403.4,120.4 L403.4,120.4L403.4,120.4z" class="st5"/></g><g><path d="M404.7,121c0.5-0.8,1.1-1.1,2-1.2c0.1,0,0.1-0.1,0-0.1C405.9,119.8,405,120.1,404.7,121L404.7,121L404.7,121 z" class="st5"/></g><g><path d="M406.3,121.1c0.5-0.4,1-1,1.8-0.8c0,0,0.1-0.1,0-0.1C407.4,120,406.8,120.6,406.3,121.1L406.3,121.1 L406.3,121.1z" class="st5"/></g><g><path d="M407.9,122c0.5-0.6,1.2-1.2,2-0.8c0.1,0,0.1-0.1,0-0.1C409.2,120.7,408.3,121.2,407.9,122L407.9,122 L407.9,122z" class="st5"/></g><g><path d="M404.2,118.4c0.1,0.5,0.6,0.8,1,1.1c0,0,0.1,0,0-0.1C404.8,119.2,404.4,118.9,404.2,118.4L404.2,118.4 L404.2,118.4z" class="st5"/></g><g><path d="M405.9,118.5c0.2,0.5,0.5,0.9,0.9,1.3c0,0,0.1,0,0.1-0.1C406.5,119.4,406.2,119,405.9,118.5L405.9,118.5 L405.9,118.5z" class="st5"/></g><g><path d="M407.4,119.1c0.1,0.2,0.2,0.5,0.4,0.7c0.1,0.2,0.3,0.4,0.5,0.5c0,0,0,0,0.1,0l0,0v-0.1l0,0c0,0,0,0-0.1,0 l0,0c0,0,0,0,0,0.1c0.1,0-0.2-0.3-0.2-0.3c-0.1-0.1-0.1-0.2-0.2-0.2C407.7,119.5,407.5,119.3,407.4,119.1L407.4,119.1 L407.4,119.1z" class="st5"/></g><g><path d="M408.6,119.7c0.3,0.5,0.8,1,1.3,1.4c0.1,0.1,0.1,0,0.1-0.1C409.5,120.6,409.1,120.1,408.6,119.7L408.6,119.7 L408.6,119.7z" class="st5"/></g><g><path d="M406.9,116.8c0.9-0.1,1.7,0,2.5,0.5c0.1,0,0.1-0.1,0.1-0.1C408.7,116.7,407.7,116.5,406.9,116.8L406.9,116.8 L406.9,116.8z" class="st5"/></g><g><path d="M408.3,118.3c0.4,0,0.9,0,1.3,0.1s0.8,0.2,1.1,0.4c0.1,0,0.1-0.1,0-0.1C410,118.4,409.1,118.1,408.3,118.3 L408.3,118.3L408.3,118.3z" class="st5"/></g><g><path d="M410,119.6c0.3,0,0.6,0.1,0.9,0.1c0.3,0.1,0.6,0.2,0.8,0.5c0,0,0.1,0,0.1-0.1c-0.2-0.2-0.4-0.4-0.8-0.5 C410.7,119.6,410.3,119.6,410,119.6L410,119.6L410,119.6z" class="st5"/></g><g><path d="M408.8,115.8c0,0.3,0.2,0.7,0.3,1c0.1,0.2,0.2,0.5,0.4,0.6l0,0C409.1,116.9,409.1,116.2,408.8,115.8 C408.8,115.7,408.8,115.7,408.8,115.8L408.8,115.8z" class="st5"/></g><g><path d="M410.1,116.2c0.1,0.9,0.4,1.8,0.7,2.6h0.1C410.5,117.9,410.4,117,410.1,116.2 C410.1,116.1,410.1,116.1,410.1,116.2L410.1,116.2z" class="st5"/></g><g><path d="M411.6,118.1c0,0.8,0.2,1.6,0.3,2.3c0,0.1,0.1,0,0.1,0C411.8,119.6,411.7,118.8,411.6,118.1 C411.6,118,411.6,118,411.6,118.1L411.6,118.1z" class="st5"/></g><g><path d="M411.6,114.3c0.5,0.6,1,1.3,1.3,2c0,0.1,0.1,0,0.1-0.1C412.7,115.5,412.2,114.8,411.6,114.3 C411.6,114.2,411.6,114.2,411.6,114.3L411.6,114.3z" class="st5"/></g><g><path d="M413.4,114.4c-0.3,0.6-0.3,1.3-0.3,2c0,0.1,0.1,0.1,0.1,0c0-0.4,0.1-0.7,0.1-1.1 C413.3,115,413.4,114.7,413.4,114.4L413.4,114.4L413.4,114.4z" class="st5"/></g><g><path d="M412.4,116.6c0.4,0.6,0.7,1.3,0.9,2l0,0C413.3,117.8,412.9,117.1,412.4,116.6 C412.4,116.5,412.4,116.6,412.4,116.6L412.4,116.6z" class="st5"/></g><g><path d="M413.4,118.6c0.2-0.5,0.3-0.9,0.6-1.3c0,0,0-0.1-0.1,0C413.7,117.6,413.4,118.1,413.4,118.6L413.4,118.6 L413.4,118.6z" class="st5"/></g></g></g><path d="M0,228.8c0,0,64.5-37.3,147.5-17.3S275,191,305,173.5s128.5-93.2,195-45.6v150.7H0V228.8z" class="st6"/><g><path d="M118.1,179.5C118.1,179.5,118.1,179.5,118.1,179.5C118.3,179.6,118.1,179.5,118.1,179.5z M116.8,178.8 c-0.2,0.2-0.5,0.5-0.4,0.5c0.3,0.2,1.3,0.2,1.7,0.1c2.5,0.1,5-0.9,6.7-2.7c-1.2-0.8-2.7-0.9-4.1-0.5c-1.4,0.4-2.6,1.3-3.6,2.3 C117.1,178.6,116.9,178.8,116.8,178.8z" class="st7"/><g class="st2"><path d="M116.8,178.8c0.1-0.1,0.3-0.2,0.4-0.3c1-1,2.2-1.9,3.6-2.3c0.7-0.2,1.4-0.3,2-0.2c-0.8,0-1.6,0.2-2.3,0.6 c-1.2,0.6-2.2,1.7-3,2.8c-0.4,0-0.9,0-1.1-0.1C116.3,179.3,116.6,179.1,116.8,178.8z" class="st3"/></g><path d="M117,174.7c0.5-0.4,1.1-0.6,1.7-0.8c0.9-0.3,1.9-0.5,2.9-0.5c-0.5,1.2-0.9,2.3-1.8,3.2c-0.4,0.3-1,0.7-1.4,1 c-0.5,0.4-1.2,1.4-1.6,1.8c-0.4,0.1-0.8-0.5-1-1c-0.2-0.6,0-1.4,0.2-2C116.2,175.8,116.5,175.2,117,174.7z" class="st7"/><path d="M118.1,177.6c0.3-0.4,0.9-0.8,1.2-1.2c0.7-0.8,0.9-1.8,1.1-2.8c0.4-0.1,0.8-0.1,1.2-0.2 c-0.5,1.2-0.9,2.3-1.8,3.2c-0.4,0.3-1,0.7-1.4,1c-0.2,0.2-0.5,0.5-0.8,0.8C117.7,178.1,117.9,177.7,118.1,177.6z" class="st4"/><path d="M116.9,171.5c0.2,1.1,0.4,2.2,0.2,3.3c-0.1,0.4-0.2,0.9-0.4,1.3c-0.2,0.6-0.2,0.9-0.4,1.4 c0.1-0.1-0.1,0.3-0.2,0.5c-0.1,0.2-0.3,0.5-0.5,0.2c-0.2-0.2-0.4-0.5-0.4-0.8c-0.1-0.3,0-0.9,0-1.3c0-0.9,0-1.9,0.3-2.8 C115.8,172.6,116.3,172,116.9,171.5z" class="st7"/><g><path d="M124.1,177c-1.2,0-2.4,0-3.6,0.3c-1.1,0.3-2.2,0.9-3.1,1.6c-0.1,0-0.1,0,0-0.1c0.9-0.7,2-1.2,3.1-1.6 C121.7,176.9,122.9,176.9,124.1,177C124.2,177,124.2,177,124.1,177L124.1,177z" class="st3"/></g><g><path d="M121.2,173.7c-1,0.5-1.9,1.1-2.7,1.9c-0.8,0.8-1.4,1.8-2.1,2.8c0,0-0.1,0,0,0 C117.5,176.3,119,174.6,121.2,173.7C121.2,173.7,121.2,173.7,121.2,173.7L121.2,173.7z" class="st3"/></g><g><path d="M116.8,172c-0.6,1.9-1.4,3.8-1,5.8c0,0-0.1,0.1-0.1,0C115.4,175.9,115.9,173.7,116.8,172 C116.8,172,116.8,172,116.8,172L116.8,172z" class="st3"/></g><g><path d="M123.3,177.7c-0.1-0.1-0.3-0.3-0.4-0.4c-0.2-0.1-0.3-0.2-0.5-0.3c0,0,0,0,0,0 C122.7,177.1,123.1,177.4,123.3,177.7C123.3,177.7,123.3,177.7,123.3,177.7L123.3,177.7z" class="st3"/></g><g><path d="M122.3,178.2c-0.3-0.6-0.8-0.8-1.5-0.9c-0.1,0,0-0.1,0-0.1C121.4,177.3,122,177.5,122.3,178.2 C122.3,178.2,122.3,178.2,122.3,178.2L122.3,178.2z" class="st3"/></g><g><path d="M121,178.3c-0.4-0.3-0.8-0.8-1.4-0.6c0,0,0,0,0,0C120.2,177.4,120.7,177.9,121,178.3 C121.1,178.3,121,178.3,121,178.3L121,178.3z" class="st3"/></g><g><path d="M119.8,178.9c-0.4-0.5-0.9-0.9-1.5-0.6c0,0-0.1,0,0-0.1C118.9,178,119.5,178.4,119.8,178.9 C119.8,178.9,119.8,178.9,119.8,178.9L119.8,178.9z" class="st3"/></g><g><path d="M122.6,176.2c-0.1,0.4-0.4,0.6-0.7,0.8c0,0,0,0,0,0C122.2,176.8,122.5,176.6,122.6,176.2 C122.6,176.2,122.6,176.2,122.6,176.2L122.6,176.2z" class="st3"/></g><g><path d="M121.3,176.3c-0.1,0.4-0.4,0.7-0.7,1c0,0-0.1,0,0,0C120.9,177,121.1,176.7,121.3,176.3 C121.3,176.3,121.3,176.3,121.3,176.3L121.3,176.3z" class="st3"/></g><g><path d="M120.2,176.7c-0.1,0.2-0.2,0.3-0.3,0.5c-0.1,0.1-0.2,0.3-0.4,0.4c0,0,0,0,0,0l0,0c0,0,0,0,0-0.1l0,0 c0,0,0,0,0,0l0,0c0,0,0,0,0,0c0,0,0.2-0.2,0.1-0.2c0.1-0.1,0.1-0.1,0.2-0.2C120.1,177.1,120.2,176.9,120.2,176.7 C120.2,176.7,120.2,176.7,120.2,176.7L120.2,176.7z" class="st3"/></g><g><path d="M119.3,177.2c-0.2,0.4-0.6,0.8-1,1.1c0,0-0.1,0-0.1-0.1C118.6,177.9,119,177.6,119.3,177.2 C119.3,177.2,119.3,177.2,119.3,177.2L119.3,177.2z" class="st3"/></g><g><path d="M120.6,175c-0.7,0-1.3,0-1.9,0.4c0,0-0.1,0,0-0.1C119.2,175,120,174.8,120.6,175 C120.6,175,120.6,175,120.6,175L120.6,175z" class="st3"/></g><g><path d="M119.5,176.1c-0.3,0-0.6,0-1,0.1c-0.3,0.1-0.6,0.2-0.9,0.3c0,0-0.1,0,0-0.1 C118.3,176.2,118.9,176,119.5,176.1C119.5,176.1,119.5,176.1,119.5,176.1L119.5,176.1z" class="st3"/></g><g><path d="M118.2,177.2c-0.2,0-0.5,0-0.7,0.1c-0.3,0.1-0.4,0.2-0.6,0.4c0,0-0.1,0,0,0c0.2-0.2,0.3-0.3,0.6-0.4 S118,177.1,118.2,177.2C118.3,177.1,118.3,177.2,118.2,177.2L118.2,177.2z" class="st3"/></g><g><path d="M119.2,174.2c0,0.2-0.1,0.5-0.2,0.7c-0.1,0.1-0.1,0.4-0.3,0.4c0,0,0,0,0,0C118.9,175,118.9,174.5,119.2,174.2 C119.2,174.2,119.2,174.2,119.2,174.2L119.2,174.2z" class="st3"/></g><g><path d="M118.1,174.5c-0.1,0.7-0.3,1.4-0.5,2c0,0-0.1,0-0.1,0C117.8,175.9,118,175.2,118.1,174.5 C118.1,174.5,118.2,174.5,118.1,174.5L118.1,174.5z" class="st3"/></g><g><path d="M117,176c0,0.6-0.2,1.2-0.2,1.7c0,0-0.1,0-0.1,0C116.8,177.1,116.9,176.5,117,176 C117,175.9,117,175.9,117,176L117,176z" class="st3"/></g><g><path d="M117,173.1c-0.4,0.5-0.7,1-1,1.5c0,0-0.1,0-0.1,0C116.2,174,116.5,173.5,117,173.1C117,173,117,173,117,173.1 L117,173.1z" class="st3"/></g><g><path d="M115.7,173.2c0.2,0.4,0.2,1,0.3,1.5c0,0-0.1,0-0.1,0c0-0.3,0-0.6-0.1-0.8 C115.7,173.6,115.7,173.4,115.7,173.2C115.7,173.2,115.7,173.2,115.7,173.2L115.7,173.2z" class="st3"/></g><g><path d="M116.4,174.8c-0.3,0.5-0.5,1-0.7,1.5c0,0,0,0,0,0C115.8,175.8,116.1,175.2,116.4,174.8 C116.4,174.8,116.4,174.8,116.4,174.8L116.4,174.8z" class="st3"/></g><g><path d="M115.7,176.3c-0.1-0.3-0.2-0.7-0.4-1c0,0,0,0,0,0C115.5,175.6,115.6,176,115.7,176.3 C115.7,176.4,115.7,176.4,115.7,176.3L115.7,176.3z" class="st3"/></g></g><g><path d="M112.6,179.5L112.6,179.5C112.6,179.5,112.5,179.6,112.6,179.5z M113.6,178.5c-1-1.1-2.3-2-3.7-2.4 c-1.4-0.4-3.1-0.3-4.3,0.6c1.8,1.9,4.4,2.9,7,2.8c0.4,0,1.5,0,1.8-0.1c0.1-0.1-0.2-0.3-0.4-0.6C114,178.7,113.7,178.6,113.6,178.5z" class="st7"/><g class="st2"><path d="M114,178.8c-0.1-0.1-0.3-0.2-0.4-0.3c-1-1.1-2.3-2-3.7-2.4c-0.7-0.2-1.4-0.3-2.1-0.2c0.8,0,1.6,0.2,2.4,0.6 c1.3,0.7,2.3,1.7,3.1,3c0.4,0,0.9,0,1.1-0.2C114.5,179.3,114.2,179,114,178.8z" class="st3"/></g><path d="M114.9,176.3c0.2,0.6,0.5,1.5,0.2,2.1c-0.2,0.5-0.6,1.1-1,1c-0.4-0.5-1.2-1.5-1.7-1.9c-0.4-0.3-1-0.7-1.4-1 c-1-0.9-1.4-2.1-1.9-3.3c1,0.1,2,0.3,3,0.6c0.6,0.2,1.3,0.4,1.8,0.9C114.3,175,114.6,175.6,114.9,176.3z" class="st7"/><path d="M112.7,177.5c-0.3-0.4-0.9-0.9-1.2-1.3c-0.7-0.9-0.9-1.9-1.2-3c-0.4-0.1-0.8-0.1-1.2-0.2 c0.6,1.2,0.9,2.4,1.9,3.3c0.4,0.4,1,0.7,1.4,1c0.2,0.2,0.5,0.5,0.8,0.9C113.1,178,112.9,177.7,112.7,177.5z" class="st4"/><path d="M115.4,173.1c0.3,0.9,0.3,1.9,0.3,2.9c0,0.4,0.1,1,0,1.4c-0.1,0.3-0.3,0.6-0.5,0.8c-0.2,0.2-0.3,0-0.5-0.3 c-0.1-0.2-0.4-0.6-0.2-0.5c-0.2-0.6-0.3-0.9-0.4-1.5c-0.2-0.4-0.3-0.9-0.4-1.3c-0.2-1.1,0-2.3,0.2-3.4 C114.6,171.7,115.1,172.3,115.4,173.1z" class="st7"/><g><path d="M106.4,176.9c1.3,0,2.5,0,3.8,0.3c1.2,0.3,2.3,0.9,3.2,1.6c0.1,0,0.1,0,0.1-0.1c-1-0.7-2.1-1.3-3.2-1.6 C108.9,176.8,107.7,176.8,106.4,176.9C106.4,176.9,106.4,176.9,106.4,176.9L106.4,176.9z" class="st3"/></g><g><path d="M109.5,173.5c1,0.5,2,1.1,2.8,1.9c0.9,0.9,1.5,1.9,2.1,2.9c0,0,0.1,0,0,0 C113.3,176.2,111.7,174.4,109.5,173.5C109.5,173.4,109.5,173.5,109.5,173.5L109.5,173.5z" class="st3"/></g><g><path d="M114,171.7c0.7,2,1.5,3.9,1,6.1c0,0,0.1,0.1,0.1,0C115.5,175.7,114.9,173.5,114,171.7 C114,171.6,114,171.7,114,171.7L114,171.7z" class="st3"/></g><g><path d="M107.3,177.6c0.1-0.1,0.3-0.3,0.4-0.4c0.2-0.1,0.3-0.2,0.5-0.3c0,0,0,0,0,0 C107.9,177,107.5,177.3,107.3,177.6C107.3,177.6,107.3,177.6,107.3,177.6L107.3,177.6z" class="st3"/></g><g><path d="M108.3,178.1c0.4-0.6,0.9-0.8,1.6-0.9c0.1,0,0-0.1,0-0.1C109.3,177.2,108.6,177.4,108.3,178.1 C108.3,178.1,108.3,178.1,108.3,178.1L108.3,178.1z" class="st3"/></g><g><path d="M109.6,178.2c0.4-0.3,0.8-0.8,1.4-0.7c0,0,0,0,0,0C110.5,177.4,110,177.8,109.6,178.2 C109.6,178.2,109.6,178.2,109.6,178.2L109.6,178.2z" class="st3"/></g><g><path d="M110.9,178.9c0.4-0.5,0.9-0.9,1.6-0.6c0,0,0.1,0,0-0.1C111.9,177.9,111.2,178.3,110.9,178.9 C110.9,178.9,110.9,178.9,110.9,178.9L110.9,178.9z" class="st3"/></g><g><path d="M107.9,176.1c0.1,0.4,0.4,0.7,0.8,0.9c0,0,0,0,0,0C108.4,176.7,108.1,176.5,107.9,176.1 C108,176.1,107.9,176.1,107.9,176.1L107.9,176.1z" class="st3"/></g><g><path d="M109.3,176.2c0.2,0.4,0.4,0.7,0.7,1c0,0,0.1,0,0,0C109.7,176.9,109.5,176.5,109.3,176.2 C109.3,176.2,109.3,176.2,109.3,176.2L109.3,176.2z" class="st3"/></g><g><path d="M110.5,176.6c0.1,0.2,0.2,0.4,0.3,0.5c0.1,0.1,0.2,0.3,0.4,0.4c0,0,0,0,0,0l0,0c0,0,0,0,0-0.1l0,0 c0,0,0,0,0,0l0,0c0,0,0,0,0,0c0.1,0-0.2-0.2-0.2-0.2c-0.1-0.1-0.1-0.1-0.2-0.2C110.7,176.9,110.6,176.8,110.5,176.6 C110.5,176.6,110.5,176.6,110.5,176.6L110.5,176.6z" class="st3"/></g><g><path d="M111.4,177.1c0.2,0.4,0.6,0.8,1,1.1c0,0,0.1,0,0.1-0.1C112.1,177.8,111.8,177.5,111.4,177.1 C111.4,177.1,111.4,177.1,111.4,177.1L111.4,177.1z" class="st3"/></g><g><path d="M110.1,174.8c0.7,0,1.3,0,2,0.4c0,0,0.1,0,0-0.1C111.5,174.8,110.7,174.5,110.1,174.8 C110.1,174.8,110.1,174.8,110.1,174.8L110.1,174.8z" class="st3"/></g><g><path d="M111.2,176c0.3,0,0.7,0,1,0.1c0.3,0.1,0.6,0.2,0.9,0.3c0,0,0.1,0,0-0.1C112.5,176.1,111.8,175.8,111.2,176 C111.2,176,111.2,176,111.2,176L111.2,176z" class="st3"/></g><g><path d="M112.5,177.1c0.2,0,0.5,0,0.7,0.1c0.3,0.1,0.5,0.2,0.6,0.4c0,0,0.1,0,0.1-0.1c-0.2-0.2-0.3-0.3-0.6-0.4 C113.1,177,112.8,177,112.5,177.1C112.5,177,112.5,177.1,112.5,177.1L112.5,177.1z" class="st3"/></g><g><path d="M111.5,174c0,0.3,0.2,0.5,0.2,0.8c0.1,0.2,0.1,0.4,0.3,0.4c0,0,0,0,0,0C111.8,174.9,111.8,174.3,111.5,174 C111.6,174,111.5,174,111.5,174L111.5,174z" class="st3"/></g><g><path d="M112.6,174.3c0.1,0.7,0.3,1.4,0.5,2.1c0,0,0.1,0,0.1,0C113,175.7,112.8,175,112.6,174.3 C112.6,174.3,112.6,174.3,112.6,174.3L112.6,174.3z" class="st3"/></g><g><path d="M113.8,175.8c0,0.6,0.2,1.2,0.2,1.8c0,0,0.1,0,0.1,0C114,177,113.9,176.4,113.8,175.8 C113.8,175.8,113.8,175.8,113.8,175.8L113.8,175.8z" class="st3"/></g><g><path d="M113.8,172.8c0.4,0.5,0.8,1,1,1.6c0,0,0.1,0,0.1,0C114.7,173.8,114.3,173.2,113.8,172.8 C113.8,172.7,113.8,172.8,113.8,172.8L113.8,172.8z" class="st3"/></g><g><path d="M115.2,172.9c-0.2,0.5-0.2,1-0.3,1.5c0,0,0.1,0,0.1,0c0-0.3,0-0.6,0.1-0.9 C115.1,173.4,115.2,173.1,115.2,172.9C115.2,172.9,115.2,172.9,115.2,172.9L115.2,172.9z" class="st3"/></g><g><path d="M114.4,174.6c0.3,0.5,0.5,1,0.7,1.5c0,0,0,0,0,0C115.1,175.6,114.8,175,114.4,174.6 C114.4,174.6,114.4,174.6,114.4,174.6L114.4,174.6z" class="st3"/></g><g><path d="M115.2,176.2c0.1-0.4,0.2-0.7,0.5-1c0,0,0-0.1,0,0C115.4,175.5,115.2,175.8,115.2,176.2 C115.2,176.2,115.2,176.2,115.2,176.2L115.2,176.2z" class="st3"/></g></g><g><g><path d="M463.2,157.1l2.3-2.3c0.2-0.2,0.4-0.2,0.6,0l1.2,1.2c1,1,1.4,2.5,1.1,3.9l-0.6,2.2" class="st8"/><polygon points="453.7 165.2 453.5 167 451.8 167.3 452.2 164.3" class="st9"/><polygon points="464.9 166.3 464.5 168.8 453.4 167 453.7 165.2" class="st9"/><polygon points="453.5 166.4 453.4 167 464.5 168.8 464.6 168.3" class="st10"/><rect width="8.7" height="11.2" x="459.1" y="157.5" class="st9" transform="matrix(0.7105 -0.7037 0.7037 0.7105 19.4033 373.3659)"/><rect width="8.7" height=".3" x="456.7" y="160.5" class="st3" transform="matrix(0.7105 -0.7037 0.7037 0.7105 20.4293 370.9337)"/><rect width="8.7" height=".3" x="457.4" y="161.2" class="st3" transform="matrix(0.7105 -0.7037 0.7037 0.7105 20.155 371.666)"/></g><g><rect width="3" height="5.1" x="485.9" y="178.4" class="st11" transform="matrix(0.8742 -0.4856 0.4856 0.8742 -26.5459 259.4431)"/><polygon points="479.1 154.2 479.1 171 485.6 181 488.5 179.6 483.3 168.1 484.7 156.2" class="st12"/><rect width="3.3" height="5.1" x="477.1" y="179.8" class="st11"/><polygon points="482.5 167.7 483.8 164 484.7 156.2 479.7 154.4 479.1 158.8 479.1 171 481.8 175.1" class="st13"/><path d="M486.5,149.5l0.3,0.5c0.2,0.5,0.3,1,0.3,1.5l-0.1,3.3c-0.1,1.4-0.5,2.9-1.3,4.1l-1.9,3l-2,5.8l-1.2,12.7 h-3.8l0.8-12.3l-0.2-0.6c-0.2-0.6-0.2-1.2-0.1-1.8l1.7-11.5l-1.2-3.2L486.5,149.5z" class="st14"/><g><path d="M468.8,135.3c0-0.5,0-1-0.2-1.5c-0.3-0.5-0.8-0.9-1.3-1.2c-1.2-0.7-2.7-1.1-4.1-1.2v0.1 c-0.1,0.8,0.3,1.5,0.6,2.3c0.7,1.5,1.3,3.2,1.2,4.9c-0.1,1.6-0.9,3-1.7,4.3c0.4-0.5,0.9-1,1.5-1.5c-0.3,1-0.7,1.9-1.2,2.8 c1.1-0.6,1.7-1.8,2.3-2.9c-0.1,1-0.3,1.9-0.8,2.8c0.8-0.9,1.4-1.9,1.9-3c0.1,0.8-0.1,1.7-0.5,2.4c0.8-1.1,1.6-2.2,2-3.5 C468.8,138.5,468.8,136.9,468.8,135.3z" class="st11"/></g><path d="M468.8,135.3c0-0.5,0-1-0.2-1.5c-0.3-0.5-0.8-0.9-1.3-1.2c-1.2-0.7-2.7-1.1-4.1-1.2v0.1 c-0.1,0.8,0.3,1.5,0.6,2.3c0.5,1.2,1.1,2.5,1.2,3.8c0.6,0.5,1.6,0.4,2.1-0.3l0.3-0.4l1.4,0.6C468.8,136.7,468.8,136,468.8,135.3z" class="st13"/><rect width="2.9" height="3.2" x="467.3" y="133.6" class="st11" transform="matrix(0.3909 -0.9204 0.9204 0.3909 161.0915 513.7728)"/><polygon points="468.9 133.5 468 136.4 466.6 135.9 467.8 133.2" class="st13"/><path d="M461.3,131.8l1.3,2.2l0.3,0.3v1.5h0.8l1.1,1c0.6,0.6,1.7,0.5,2.2-0.2l2.4-3.5l-1.7-4 C467.7,129.1,462.5,127.4,461.3,131.8z" class="st11"/><g><g><linearGradient id="SVGID_1_" x1="461.089" x2="461.208" y1="931.85" y2="931.85" gradientTransform="matrix(1 0 0 1 0 -800)" gradientUnits="userSpaceOnUse"><stop offset="0" style="stop-color:#ffc107"/><stop offset="1" style="stop-color:#de4437"/></linearGradient><path d="M461.2,131.9L461.2,131.9c-0.1-0.1-0.1-0.1-0.1-0.1L461.2,131.9z" class="st15"/></g><g><linearGradient id="SVGID_2_" x1="461.208" x2="461.489" y1="932.05" y2="932.05" gradientTransform="matrix(1 0 0 1 0 -800)" gradientUnits="userSpaceOnUse"><stop offset="0" style="stop-color:#ffc107"/><stop offset="1" style="stop-color:#de4437"/></linearGradient><path d="M461.5,132.2l-0.3-0.3C461.3,132,461.4,132.1,461.5,132.2z" class="st16"/></g><g><linearGradient id="SVGID_3_" x1="460.977" x2="476.397" y1="930.787" y2="930.787" gradientTransform="matrix(1 0 0 1 0 -800)" gradientUnits="userSpaceOnUse"><stop offset="0" style="stop-color:#ffc107"/><stop offset="1" style="stop-color:#de4437"/></linearGradient><path d="M475.5,133.3c-0.9-0.7-2.3-0.7-2.9-1.7c-0.1-0.2-0.2-0.5-0.4-0.7c-0.5-0.5-1.4-0.4-1.9-1 c-0.2-0.3-0.2-0.6-0.3-0.9c-0.2-0.5-0.5-0.9-0.9-1.2c-0.3-0.2-0.7-0.4-1.1-0.5c-0.4-0.2-0.8-0.3-1.2-0.5 c-0.4-0.2-0.8-0.3-1.2-0.4c-0.6-0.1-1.2,0.1-1.7,0.3c-0.3,0.1-0.6,0.2-0.8,0.3c-0.8,0.5-1.2,1.4-1.5,2.2c-0.3,0.6-0.6,1.3-0.5,2 c0,0.2,0.1,0.4,0.2,0.5c0.5,0.4,1.2,0.3,1.8,0.2c0.6-0.1,1.3-0.3,1.9-0.2c0.5,0.1,1,0.2,1.5,0.2s0.9,0.4,1.2,0.8 c0.3,0.4,0.6,0.8,1.1,1.1c0.3,0.2,0.6,0.3,0.9,0.3c0.3,0.1,0.6,0.1,0.9,0.1c0.5,0,0.9-0.3,1.4-0.4c0.5-0.2,0.9-0.3,1.4-0.4 c0.2,0,0.4,0,0.7,0c0.3,0.1,0.6,0.3,0.8,0.5c0.3,0.2,0.6,0.5,0.9,0.7c0.2,0.2,0.6,0.3,0.7,0.6 C476.5,134.6,476.1,133.7,475.5,133.3z" class="st17"/></g></g><path d="M487.1,151.5c0-0.3,0-0.6-0.1-0.9l-0.3-0.8l-0.2-0.4l-8.6,1.5l0.8,2.2l8.4-0.5L487.1,151.5z" class="st13"/><path d="M470,134.2l2.5-0.7h1.3c1,0,2,0.3,2.8,1l3.9,3.2c1.4,1.2,2.5,2.6,3.3,4.3l3.8,9.9l-9.5,1.4L474,141l-3.5-1.9 l-1-1.9L470,134.2z" class="st18"/><path d="M471.2,187.4l0.1-0.3c0.3-0.6,0.8-1.2,1.4-1.5l2.6-0.9l1.7-1.1v0.9h2l0.8-0.5h0.6v3.4L471.2,187.4 L471.2,187.4z" class="st11"/><rect width="9.9" height=".5" x="471" y="187.4" class="st3"/><path d="M483.4,187.9v-0.5c0.1-0.7,0.1-0.7,0.5-1.2l1.7-1.8l1-1.6l0.4,0.8l1.6-0.9l0.5-0.7l0.5-0.2l1.4,2.8l-6.6,3.3 L483.4,187.9z" class="st11"/><rect width="7" height=".5" x="484.9" y="185.8" class="st3" transform="matrix(0.8916 -0.4528 0.4528 0.8916 -31.2958 241.3194)"/><polygon points="483.4 187.9 485.4 187.9 486.1 187.4 483.4 187.4" class="st3"/><g><path d="M472.1,186h6.5v-0.3h-6.2C472.4,185.8,472.3,185.9,472.1,186z" class="st18"/><polygon points="473.6 185.2 480.4 185.2 480.4 184.9 474.4 184.9" class="st18"/></g><g><polygon points="489.8 182.3 485.3 184.7 484.8 185.3 489.9 182.5" class="st18"/><path d="M488.7,183.7l-4.9,2.6c-0.1,0.2-0.2,0.3-0.3,0.4l5.2-2.8L488.7,183.7z" class="st18"/></g><g class="st19"><path d="M486.3,156.9c-0.4,1.4-1.2,2.4-2.6,3c-0.3,0.1-0.5,0.6-0.3,0.9c-0.2,0.1-0.4,0.2-0.6,0.3 c-0.4,0.2,0.2,0.4,0.6,0.5c0.8,0.1-0.4,0.8-0.5,1.3c-0.1,0.6-0.4,1.2-0.5,1.8s-0.1,1.1,0,1.6l1.5-4.4l1.9-3 c0.5-0.7,0.8-1.5,1-2.4C486.6,156.5,486.4,156.7,486.3,156.9z" class="st20"/><path d="M481.9,167.5c-0.4,0-0.8-0.1-1.1-0.2c-0.7-0.2-0.1,0.5,0.6,0.8c0.2,0.1-0.6,0.4-0.4,0.5 c0,0-0.6,0.3-0.6,0.4c-0.5,0.3,0.2,0.6,0.7,0.7c-0.1,0.1-0.1,0.2-0.2,0.4c-0.3,0.9,0.1,2.4,0.2,3.3c0,0.2,0.1,0.3,0.2,0.4l0.6-6 L481.9,167.5z" class="st20"/></g><path d="M477.8,147.8c-0.2,0-0.8-0.2-1-0.2c0.1-0.1,0.6-0.5,0.5-0.6c-0.9-0.2-1.5-0.8-1.6-1.8c0-0.2-0.2-0.3-0.4-0.2 l0.7,2c0.1,0.1,0.3,0.2,0.4,0.2c0,0-0.1,0-0.1,0.1c-0.1,0-0.1,0.1-0.1,0.1l0.1,0.4c0.1,0,0.1,0,0.2,0c-0.1,0-0.1,0.1-0.1,0.2 l0.1,0.3c0,0,0.5,1.2,0.6,1.8l0.8,2.3c0-1-0.1-2.1-0.3-3.1c-0.1-0.4-0.1-0.8-0.3-1c0.3-0.1,0.6-0.1,0.9-0.2 C478.4,147.9,478.1,147.8,477.8,147.8z" class="st21"/><path d="M472.6,144.5l0.5,3.8l-4.9,6.3l-1.6-0.2l-1.5,0.8l-0.4,0.7l0.2,1.8l2.9,0.3l1.6-1.9l6.6-6.1 c0.2-0.2,0.3-0.5,0.3-0.8l-0.5-5.1L472.6,144.5z" class="st11"/><polygon points="475.9 144 472.6 144.5 472.7 144.9 475.9 144.5" class="st13"/><polygon points="476.2 138.9 475.6 140.5 476.2 144 472.1 144.5 470.5 139 471.2 137.2" class="st18"/><path d="M475.8,143.4c-0.2-1-0.1-1.7-0.4-2.7c-0.1-0.5-0.2-0.6-0.4-0.7l0,0c0.2-0.1,0.2-0.3,0.1-0.4 c0.3-0.2,0.3-0.6,0.6-0.8c0.3-0.2,0.2-0.3-0.1-0.2c-0.4,0.2-0.8,0.4-1.1,0.7c-0.1,0.1-0.2,0.3-0.1,0.4c-0.1,0,0,0.3-0.1,0.3 c-0.2,0.1-0.3,0.2-0.1,0.3c0.6,0.3,0.7,0.9,0.8,1.5c0.2,0.7,0.3,1.4,0.5,2.1C475.7,144.3,475.9,143.7,475.8,143.4z" class="st21"/></g><g id="Layer_13_2_"><g><path d="M441,175.3L441,175.3C441,175.3,440.8,175.5,441,175.3z M443.2,173.2c-2.3-2.4-5-4.4-8.2-5.2 c-3.1-0.9-6.7-0.6-9.5,1.2c3.9,4.2,9.7,6.5,15.5,6.2c0.8,0.1,3.2,0.1,3.9-0.3c0.2-0.1-0.4-0.7-0.8-1.2 C444,173.7,443.4,173.3,443.2,173.2z" class="st22"/><g class="st2"><path d="M444.1,173.8c-0.2-0.2-0.7-0.5-0.8-0.6c-2.3-2.4-5-4.4-8.2-5.2c-1.5-0.4-3.1-0.6-4.7-0.4 c1.8,0.1,3.6,0.6,5.2,1.4c2.9,1.5,5.1,3.8,6.9,6.5c1,0,2-0.1,2.4-0.3C445.1,174.9,444.6,174.3,444.1,173.8z" class="st3"/></g><path d="M445.9,168.2c0.5,1.3,1.1,3.3,0.5,4.6c-0.4,1-1.2,2.5-2.2,2.3c-0.8-1.1-2.6-3.4-3.7-4.2 c-0.9-0.7-2.3-1.5-3.2-2.3c-2.2-2-3-4.7-4.3-7.4c2.2,0.2,4.4,0.6,6.6,1.2c1.4,0.4,2.8,0.9,3.9,1.9 C444.8,165.3,445.4,166.8,445.9,168.2z" class="st22"/><path d="M441.2,170.9c-0.8-0.9-2-1.9-2.8-2.8c-1.5-2-2-4.2-2.6-6.6c-0.9-0.2-1.8-0.3-2.8-0.4 c1.2,2.7,2.1,5.4,4.3,7.4c0.8,0.8,2.3,1.6,3.2,2.3c0.5,0.4,1.2,1.2,1.8,1.9C442,172,441.6,171.3,441.2,170.9z" class="st4"/><path d="M447.1,161.2c0.8,2,0.7,4.3,0.7,6.4c0,0.8,0.2,2.2,0,3c-0.2,0.7-0.6,1.3-1,1.9c-0.4,0.5-0.8-0.1-1.1-0.6 c-0.3-0.5-0.8-1.2-0.6-1.1c-0.4-1.2-0.6-2-0.9-3.3c-0.3-1-0.6-2-0.8-3c-0.4-2.5,0.1-5,0.6-7.5 C445.4,158.1,446.4,159.6,447.1,161.2z" class="st22"/><g><path d="M427.2,169.6c2.8-0.1,5.6,0,8.4,0.8c2.6,0.7,5,2,7.1,3.6c0.1,0.1,0.2-0.1,0.1-0.2c-2.1-1.6-4.6-2.8-7.2-3.6 C432.8,169.4,430,169.4,427.2,169.6C427.1,169.5,427.1,169.6,427.2,169.6L427.2,169.6z" class="st5"/></g><g><path d="M434,162c2.3,1.1,4.4,2.5,6.2,4.3c2,1.9,3.3,4.2,4.7,6.5c0,0.1,0.2,0,0.1-0.1C442.6,168,439,164,434,162 C434,161.9,434,162,434,162L434,162z" class="st5"/></g><g><path d="M444.1,158c1.5,4.4,3.2,8.7,2.2,13.5c0,0.1,0.1,0.2,0.2,0C447.4,167,446.1,162.1,444.1,158L444.1,158 L444.1,158z" class="st5"/></g><g><path d="M429.2,171.2c0.3-0.3,0.6-0.6,1-0.9c0.4-0.3,0.7-0.5,1.1-0.7v-0.1C430.5,169.8,429.7,170.5,429.2,171.2 L429.2,171.2L429.2,171.2z" class="st5"/></g><g><path d="M431.5,172.3c0.8-1.4,2-1.9,3.5-2c0.1,0,0.1-0.2,0-0.2C433.5,170.3,432,170.8,431.5,172.3L431.5,172.3 L431.5,172.3z" class="st5"/></g><g><path d="M434.4,172.5c0.9-0.7,1.8-1.8,3.1-1.5c0.1,0,0.1-0.1,0-0.1C436.2,170.6,435.2,171.7,434.4,172.5 C434.3,172.5,434.3,172.5,434.4,172.5L434.4,172.5z" class="st5"/></g><g><path d="M437.2,174c0.8-1.1,2.1-2,3.5-1.3c0.1,0,0.2-0.1,0.1-0.1C439.3,171.8,437.9,172.7,437.2,174 C437.1,174,437.2,174,437.2,174L437.2,174z" class="st5"/></g><g><path d="M430.6,167.8c0.2,0.9,1,1.5,1.7,2c0.1,0,0.1-0.1,0.1-0.1C431.7,169.2,430.9,168.7,430.6,167.8 C430.7,167.7,430.6,167.8,430.6,167.8L430.6,167.8z" class="st5"/></g><g><path d="M433.7,168c0.3,0.9,0.9,1.6,1.6,2.3c0.1,0.1,0.2,0,0.1-0.1C434.6,169.5,434.1,168.8,433.7,168 C433.7,168,433.6,168,433.7,168L433.7,168z" class="st5"/></g><g><path d="M436.2,169c0.2,0.4,0.4,0.8,0.6,1.2c0.2,0.3,0.5,0.8,0.8,0.9h0.1l0,0V171l0,0h-0.1l0,0v0.1 c0.1,0-0.3-0.5-0.3-0.5c-0.1-0.2-0.2-0.3-0.4-0.4C436.7,169.7,436.4,169.3,436.2,169L436.2,169L436.2,169z" class="st5"/></g><g><path d="M438.3,170c0.6,1,1.4,1.8,2.3,2.5c0.1,0.1,0.2-0.1,0.2-0.2C439.8,171.7,439.1,170.8,438.3,170L438.3,170 L438.3,170z" class="st5"/></g><g><path d="M435.4,165c1.6-0.1,3,0,4.3,0.8c0.1,0.1,0.2-0.1,0.1-0.2c-1.2-0.8-3-1.3-4.4-0.8 C435.3,164.9,435.3,165,435.4,165L435.4,165z" class="st5"/></g><g><path d="M437.8,167.6c0.8,0,1.5,0,2.2,0.2s1.3,0.4,2,0.6c0.1,0,0.1-0.1,0-0.2C440.7,167.8,439.2,167.2,437.8,167.6 L437.8,167.6L437.8,167.6z" class="st5"/></g><g><path d="M440.8,169.9c0.5,0,1.1,0.1,1.6,0.2c0.6,0.1,1,0.4,1.4,0.9c0.1,0.1,0.2,0,0.1-0.1c-0.4-0.4-0.7-0.7-1.3-0.9 C442,169.9,441.4,169.8,440.8,169.9L440.8,169.9L440.8,169.9z" class="st5"/></g><g><path d="M438.6,163.2c0,0.6,0.3,1.2,0.6,1.7c0.2,0.3,0.3,0.9,0.7,1c0,0,0.1,0,0-0.1 C439.2,165.2,439.2,164,438.6,163.2C438.7,163.1,438.6,163.1,438.6,163.2L438.6,163.2z" class="st5"/></g><g><path d="M441,163.8c0.2,1.6,0.6,3.1,1.2,4.6c0,0.1,0.2,0,0.1,0C441.7,166.9,441.4,165.4,441,163.8L441,163.8 L441,163.8z" class="st5"/></g><g><path d="M443.6,167.2c0,1.3,0.3,2.7,0.6,4c0,0.1,0.2,0.1,0.2,0C444,169.8,443.8,168.5,443.6,167.2 C443.6,167.1,443.6,167.1,443.6,167.2L443.6,167.2z" class="st5"/></g><g><path d="M443.6,160.5c1,1.1,1.7,2.2,2.3,3.5c0.1,0.1,0.2,0,0.2-0.1C445.5,162.6,444.7,161.5,443.6,160.5 C443.6,160.4,443.6,160.5,443.6,160.5L443.6,160.5z" class="st5"/></g><g><path d="M446.7,160.8c-0.5,1-0.6,2.3-0.6,3.4c0,0.1,0.2,0.1,0.2,0c0-0.6,0.1-1.2,0.2-1.9 C446.5,161.8,446.7,161.3,446.7,160.8C446.8,160.7,446.7,160.7,446.7,160.8L446.7,160.8z" class="st5"/></g><g><path d="M445,164.6c0.7,1.1,1.2,2.2,1.6,3.4h0.1C446.5,166.8,445.8,165.5,445,164.6 C445,164.5,444.9,164.6,445,164.6L445,164.6z" class="st5"/></g><g><path d="M446.7,168.1c0.3-0.8,0.6-1.6,1-2.3c0-0.1-0.1-0.1-0.1-0.1C447.2,166.4,446.8,167.2,446.7,168.1 L446.7,168.1L446.7,168.1z" class="st5"/></g></g></g></g><path d="M0,218.9c0,0,104.3-64.7,176.8-36.9s170.4,15.7,170.4,15.7v81H0V218.9z" class="st23"/><linearGradient id="SVGID_4_" x1="0" x2="500" y1="1006.331" y2="1006.331" gradientTransform="matrix(1 0 0 1 0 -800)" gradientUnits="userSpaceOnUse"><stop offset="0" style="stop-color:#dae1e9"/><stop offset="1" style="stop-color:#f0f1f3"/></linearGradient><path d="M0,170.5c0,0,66.6,50.7,193.5,5c28.2-10.2,56.1-21.2,84.4-31.2c17.5-6.2,36.2-10.7,54.9-10.2	c18.4,0.6,36.4,5.7,53.3,12.9c9.6,4.2,18.9,9.1,27.9,14.4c8.6,5.1,16.7,11.2,26,15.1c8.3,3.4,17,5.5,25.9,6.6	c6.5,0.8,13.1,1.2,19.6,1.4c4.8,0.1,9.7,0.1,14.5,0.1v94H0V170.5z" class="st24"/><g><path d="M371.3,208.3l-4.6-0.1l-0.4-0.3h-0.1l23-13l1.2-0.5h-0.2c0.4-0.1,0.7-0.2,0.9-0.3l4.2-2.2l0,0l1.3-0.7 l5.7-1.8l-4.5,3.1c-0.1,0.2,0.2,0.3,0.7,0.4c0.7,0.1,2.2,0,3.2-0.3l11.3-2.8h-0.4l0.7-0.2l11.3-1.4c-0.2-0.1-0.9-0.1-1.7-0.1 l-2.2,0.3h-0.5c-0.4,0-1,0-1.5,0.1l-1.1,0.1l-3.2,0.2c-0.9,0.1-1.8,0.2-2.5,0.4l-1.5,0.4h0.2h-0.5l-5.1,1.1l4.4-2.3 c0.8-0.4,0.7-0.8-0.2-1l-5.1-1.1c1.3-0.3,2.6-0.7,3.3-0.9c0.4-0.1,0.5-0.2,0.7-0.4l0.8-0.1c0,0,1.8-0.4,1.9-0.6v-0.1 c0.7-0.3,1.2-0.5,1.9-0.8c0.2-0.1,0.5-0.2,0.6-0.3s0.1-0.1,0.1-0.2c0-0.1,0.1-0.3,0.1-0.4c0.1-0.2-0.5-0.2-1.1-0.3s-1-0.2-1.7-0.2 c-0.5,0-1.1,0-1.6,0.1c-0.2,0-0.5,0.1-0.7,0.1c-0.4,0-0.7,0-1,0c-0.8,0-1.9,0.2-2.6,0.4c-0.1,0-0.2,0.1-0.3,0.1 c-0.1,0-0.3,0-0.4,0.1c-1.6,0.3-2,0.7-2.5,1c-0.2,0.1-0.5,0.2-0.6,0.4c-0.4,0-0.8,0.1-0.8,0.1c-1,0.3-0.9,0.6-0.9,0.6l0.6,0.1 c-0.1,0-0.1,0.1-0.2,0.1s-0.2,0.1-0.3,0.1c-0.5,0.2-0.7,0.4-0.8,0.5l0,0l-0.9,0.4l-10.7,1.2c-1.9,0.2-3.7,0.6-4.8,1l-5.8,2.3 l-0.1-1.1h-0.5l0,0l0.3-0.4c0.1-0.2-0.1-0.3-0.7-0.4l-2.3-0.2l-0.5-0.1c-0.3-0.1-0.7-0.1-1.2-0.1h-0.7l-1.1-0.3 c-0.4-0.1-1.2-0.1-1.9,0.1l5.2,1.4l-0.2,0.2h-0.6l-1.4,2.8c-0.1,0.3,0.8,0.4,2.1,0.3c0.8-0.1,1.7-0.2,2.5-0.4l6.9-2.3l-1.3,0.6l0,0 l-1.1,0.5l-0.6,0.2l0,0l-3.9,1.6l-2.2,0.9c-0.2,0.1-0.4,0.2-0.3,0.3l0,0l-0.9,0.4l-20,7.2l-13.3,5.9H338l-1.5,0.3l-5.3,0.1 c-1.4,0.1-1.7,0.2-2.7,0.5l-0.3,0.1h10.2l1.3-0.2l-0.5,0.2h3.4l2.1-0.9h-0.2l6.1-2.5l0,0l6.6-2.7l17.5-5.3l-0.1,0.1l-0.1,0.1l0,0 l-6.7,5.3l-8.1,5h-0.1l-2.1,0.9h3.4l0.5-0.2l0.2,0.2h10.2l0.1-0.1C372.3,208.4,372.2,208.4,371.3,208.3z" class="st25"/></g><g><polygon points="340 147.3 335.5 179.1 335.4 205 342.2 205 343.6 182.4 350 159.5 355.8 182.9 359.3 205 366.5 205 359.5 147.3" class="st26"/><path id="XMLID_16_" d="M335,204.7l-1.1,1.1l-5.5,0.6c-1.3,0.4-1.5,0.7-1.9,2l-0.1,0.3h11.4l0.8-1v1h3.8v-4.1h-3 L335,204.7L335,204.7z" class="st27"/><path id="XMLID_15_" d="M366.6,204.7l1.1,1.1l5.5,0.6c1.3,0.4,1.5,0.7,1.9,2l0.1,0.3h-11.4l-0.8-1v1h-3.8v-4.1h3 L366.6,204.7L366.6,204.7z" class="st27"/><path d="M347.2,110.7l-7.7,4.3l0.7,18.2l-0.6,11.9c-0.1,1.2,0.9,2.2,2.1,2.2h15.9c1.3,0,2.2-1.1,2.1-2.3l-1-12.3 l3.9-17.2l-8.6-4.8L347.2,110.7L347.2,110.7z" class="st28"/><polygon points="354 111 350.6 117.2 347.2 111 347.2 106.5 354 106.5" class="st11"/><g><path d="M357,97.3c-0.1-0.3-0.2-0.6-0.3-0.8c-0.3-0.5-0.6-1.1-0.8-1.6c-0.5-1-1-0.8-1.9-1.1 c-0.8-0.3-1.6-0.8-2.5-0.9c-0.6,0-1.1,0.2-1.6,0.4c-0.2,0.1-0.4,0.2-0.6,0.3c-0.4,0.1-0.8,0-1.2,0c-0.9,0-1.8,0.7-2,1.6 c0,0.1-0.1,0.3-0.1,0.4c-0.1,0.1-0.2,0.2-0.3,0.3c-1.2,1.1-0.5,3-0.3,4.4c0.1,0.8,0,1.6,0.7,2.2l-0.3-0.1c0.8,0.8,1.8,1.2,2.9,1.4 c1.1,0.2,2.2,0.2,3.3,0.2c1.3,0,2.6,0,3.9,0c0.2,0,0.5,0,0.7-0.2s0.3-0.5,0.3-0.8c0.2-1.5,0.1-3,0.2-4.5 C357,98,357.1,97.6,357,97.3z" class="st29"/></g><path d="M347.2,109.1l1,1.7c0.6,1.1,1.8,1.8,3.1,1.8c1.1,0,2.2-0.5,2.8-1.4v-4.6h-6.9V109.1z" class="st13"/><path d="M346.6,99.6v5.2c0,1.2,0.3,2.3,0.9,3.4l1,1.7c0.6,1.1,1.8,1.8,3.1,1.8l0,0c1.2,0,2.4-0.6,3-1.7l0.2-0.3 c0.6-1,1-2.3,1-3.5v-5v-4.6h-9L346.6,99.6z" class="st11"/><path d="M346.7,105.6l-1-0.6c0,0-1.1-1.6-0.6-2.7c0,0,0.4-0.9,1.1-0.5l1,1L346.7,105.6z" class="st11"/><path d="M355.5,105.6l1-0.6c0,0,1.1-1.6,0.6-2.7c0,0-0.4-0.9-1.1-0.5l-1,1L355.5,105.6z" class="st11"/><g><path d="M346.3,100.5c0.1,0.8,0.2,1.6,0.2,2.5c0,0.3-0.1,1.3,0.5,1c0.2-0.1,0.3-0.3,0.3-0.5c0.1-0.8-0.6-1.5-0.2-2.2 c0.3-0.5,0.9-0.9,1-1.5c0.1-0.4-0.1-0.9-0.2-1.3c0-0.3,0-0.7,0.2-1s0.6-0.4,0.9-0.3s0.5,0.4,0.8,0.6c0.6,0.5,1.4,0.7,2.1,0.4 c0.4-0.2,0.8-0.5,1.2-0.7c0.4-0.3,0.9-0.4,1.3-0.3c0.7,0.2,0.9,0.9,1.1,1.6c0.1,0.7,0.3,1.5,0.2,2.2c-0.1,0.6-0.4,1.1-0.5,1.7 c0,0.1-0.1,0.3-0.1,0.4c0,0.3,0.2,0.5,0.3,0.7c0,0,0,0.1,0.1,0.1s0.1,0,0.2-0.1c0.4-0.3,0.5-0.9,0.6-1.4c0.1-0.7,0.4-1.1,0.2-1.8 c-0.3-1.4,0.1-2.8-0.2-4.2c0-0.1-0.1-0.3-0.1-0.4c-0.1-0.1-0.3-0.2-0.4-0.3c-2-0.7-4.1-0.6-6.2-0.5c-0.7,0-1.5,0.1-2.1,0.5 c-0.7,0.5-1.1,1.3-1.3,2.2C346.1,98.7,346.2,99.6,346.3,100.5z" class="st29"/></g><path d="M328.3,126.2l-0.3-0.9l-9.2-5.9l0,0c0.5-0.5,1.4-0.6,2-0.2l1.8,1.1l0.7-0.1c0.5-0.1,1.1,0,1.6,0.3l0.9,0.6 l3.1,0.9c0.8,0.2,1.5,0.9,1.8,1.7l0.7,1.7L328.3,126.2z" class="st11"/><path d="M372.9,126.2l0.3-0.9l9.2-5.9l0,0c-0.5-0.5-1.4-0.6-2-0.2l-1.8,1.1l-0.7-0.1c-0.5-0.1-1.1,0-1.6,0.3l-0.9,0.6 l-3.1,0.9c-0.8,0.2-1.5,0.9-1.8,1.7l-0.7,1.7L372.9,126.2z" class="st11"/><path d="M347.2,110.7l-9.1,5.1c-1.6,0.9-2.7,2.5-2.8,4.4l-0.8,9.9l-2.9-4.8l-3.9,1.2l5.5,12.3c0.5,1.1,1.9,1.6,3,1.1 c0.7-0.4,1.4-0.9,1.8-1.8l2.9-14.6l6.3-9.3V110.7z" class="st28"/><path d="M354,110.7l9.1,5.1c1.6,0.9,2.7,2.5,2.8,4.4l0.8,9.9l2.9-4.8l3.9,1.2l-5.5,12.3c-0.5,1.1-1.9,1.6-3,1.1 c-0.7-0.4-1.4-0.9-1.8-1.8l-2.9-14.6l-6.3-9.3V110.7z" class="st28"/><rect width="19.8" height="3" x="339.9" y="146.3" class="st27"/><rect width="3.4" height="3" x="347.9" y="146.3" class="st11"/><path d="M358.8,132.7l1.8-8c-0.6,0.9-1.1,1.9-1.6,2.9c-0.2,0.4,0,0.8,0.3,1c-0.4,0.9-1.9,2.4-2.5,3 c-0.5,0.5,0.9,0.6,1.5,0.4c0,0,0,0,0.1,0c-0.4,0.7-0.8,1.4-1.3,2c-0.3,0.4-1.1,1-0.6,0.9c0.4-0.1,1.7,0.2,2.1,0.1 c-0.2,0.5-0.3,0.9-0.5,1.4s0.1,1,0.5,1.1c-0.3,0,0.1,2.8,0.2,3.1c0.2,0.9,0.4,1.5,0.8,2.1l-0.4-6.9v-0.1L358.8,132.7z" class="st30"/><path d="M341.9,134.5c-1.6-0.8-2-1.6-1.4-2.4c0.6,0.2,1.5,0,2.1,0.2c0.4,0.1,0.2-0.4-1.1-0.5c0.2,0-1.4-2-0.8-2 c0.3,0,0.5-0.4,0.4-0.7c-0.7-1.2-0.8-2.9-1.2-4.3l0.2,6.1c0.1,0.1,0.3,0.2,0.4,0.4c-0.1,0-0.3-0.1-0.4-0.1l0.1,2.1v0.7 c0.1,0.1,0.1,0.2,0.2,0.3c-0.1,0-0.1,0-0.2,0l-0.4,9.2c0.1-0.1,0.2-0.2,0.2-0.3c0-1.9,0.6-3.5,0.8-5.3c0.1-0.6-0.4-2.8,0.9-2.5 C342,135.4,342.3,134.7,341.9,134.5z" class="st30"/><polygon points="347.2 110.7 345.2 111.9 347.5 120.3 350.6 117.2" class="st18"/><polygon points="354 110.7 356.1 111.9 353.7 120.3 350.6 117.2" class="st18"/><circle cx="350.6" cy="120.2" r=".4" class="st3"/><path d="M350.8,124.8c0,0.2-0.2,0.4-0.4,0.4c-0.2,0-0.4-0.2-0.4-0.4s0.2-0.4,0.4-0.4 C350.6,124.4,350.8,124.6,350.8,124.8z" class="st3"/><path d="M350.6,129.3c0,0.2-0.2,0.4-0.4,0.4c-0.2,0-0.4-0.2-0.4-0.4s0.2-0.4,0.4-0.4 C350.5,129,350.6,129.1,350.6,129.3z" class="st3"/><circle cx="350.1" cy="133.9" r=".4" class="st3"/><circle cx="349.9" cy="138.5" r=".4" class="st3"/><path d="M350.1,143c0,0.2-0.2,0.4-0.4,0.4c-0.2,0-0.4-0.2-0.4-0.4s0.2-0.4,0.4-0.4C350,142.7,350.1,142.8,350.1,143z" class="st3"/><g class="st31"><g><path d="M343.6,182.4l-0.7,11.6c-0.1,0.1-0.2,0.1-0.3,0.2c-0.1-3.6-0.7-7.2-1.7-10.6c0.6-0.2,1.2-0.6,1.6-1.1 c-0.4,0-0.8-0.1-1.2-0.1c0.3-0.2,0.6-0.5,0.7-0.8c-0.9,0-1.8,0-2.7,0c2.5-0.6,4.4-3,4.3-5.5c-0.3,0.1-0.7,0-1-0.2 c0.9-1.4,1.8-2.8,2.7-4.3c0.2-0.2,0.3-0.5,0.2-0.8c-0.5,0.4-1,0.7-1.6,0.8c0.7-0.8,1.4-1.7,1.7-2.7c0.4-1.2,0.3-2.5,0.5-3.7 c0.4-2.3,1.8-4.3,3.8-5.4L343.6,182.4z M350.1,160.2c0-0.2,0-0.3,0-0.5l-0.1-0.1l0,0L350.1,160.2z" class="st3"/></g></g><g class="st31"><path d="M366.3,203.3l-6.6-54.9c-0.1,0-0.2,0-0.2,0l-0.1,0.3c-0.3,3.6-0.3,7.2,0.3,10.7c0.3,2.1,0.8,4.2,0.3,6.3 c-0.1,0.7-0.4,1.2-0.7,1.9c-0.3,0.8-0.4,1.8-0.5,2.6c-0.2,0.9-0.3,1.7-0.4,2.6c-0.1,0.9-0.3,1.8-0.3,2.8c0,0.1,3.5-0.7,3.9-1.1 c-0.3,1.6-0.9,3.3-1.5,4.8c0.4-0.8,0.9-1.6,1.6-2.2c-0.6,1.1-0.9,2.3-1.1,3.6c0.7-0.1,1.4-0.2,2.2-0.2c-0.6,1.4-1.2,2.7-1.9,4.1 c0.8-0.4,1.5-0.8,2.3-1.2c-0.2,3.4-0.4,6.8-0.6,10.1c-0.1,1.3-0.1,2.6,0.4,3.8c0.4,0.9,1,1.6,1.5,2.4c0.8,1.4,1.2,3.1,1,4.7 C366,204.1,366.1,203.7,366.3,203.3z" class="st3"/></g><g><path d="M349.2,107c-0.1,0.3-0.2,0.5-0.3,0.8c-0.1,0.2-0.4,0.5-0.7,0.4c-0.3-0.1-0.4-0.5-0.4-0.8 c-0.1-0.9,0.1-1.7-0.2-2.6c-0.1-0.2-0.2-0.4-0.2-0.7c0-0.2,0-0.4,0-0.7c0-0.2-0.2-0.4-0.4-0.4c-0.2,0-0.4,0.2-0.4,0.4 c0,0.2,0,0.4,0,0.6c0.2,1,0.3,1.9,0.2,2.8c-0.1,1,0.3,1.9,0.6,2.8c0.1,0.3,0.2,0.6,0.4,0.9c0.4,0.7,1.2,1.2,2,1.4 c0.8,0.2,1.7,0.2,2.5,0.2c0.5,0,1.1,0,1.6-0.2c1.5-0.6,1.9-3.4,2.1-4.8c0.1-0.6-0.1-1.1-0.1-1.7c-0.1-0.7,0.2-1.5,0.3-2.2 c0-0.1,0-0.2-0.1-0.3c-0.1-0.1-0.3-0.1-0.3-0.2c-0.2,0.2-0.5,0.5-0.6,0.8c0,0.1,0,0.3,0,0.4c0,0.6,0,1.2-0.1,1.7 c-0.2,0.7-0.4,1.3-0.5,2c0,0.3-0.1,0.7-0.5,0.8c-0.2,0.1-0.5-0.1-0.6-0.4c-0.1-0.2-0.1-0.5-0.1-0.8s0-0.5-0.2-0.7 c-0.2-0.3-0.6-0.3-1-0.3C351.3,106.2,349.8,105.7,349.2,107z" class="st29"/></g></g><g id="Clouds"><path id="XMLID_198_" d="M113.3,71.4L113.3,71.4c-0.6-1.7-2.2-3-4.1-3c-0.8,0-1.6,0.2-2.2,0.7 c-0.4-2.7-2.7-4.8-5.6-4.8c-2.5,0-4.7,1.7-5.4,4c-0.3-0.1-0.7-0.1-1-0.1c-1.9,0-3.5,1.4-3.8,3.3h-0.6c-1.6,0-2.9,1.3-2.9,2.9v0.2 c0,1.6,1.3,2.9,2.9,2.9h22.7c1.6,0,2.9-1.3,2.9-2.9v-0.2C116.2,72.7,114.9,71.4,113.3,71.4z" class="st18"/><path id="XMLID_181_" d="M59.5,56L59.5,56c-0.4-1.2-1.6-2.1-2.9-2.1c-0.6,0-1.1,0.2-1.6,0.5c-0.3-1.9-2-3.4-4-3.4 c-1.8,0-3.3,1.2-3.8,2.8c-0.2-0.1-0.5-0.1-0.7-0.1c-1.4,0-2.5,1-2.7,2.3h-0.5c-1.1,0-2.1,0.9-2.1,2.1v0.2c0,1.1,0.9,2.1,2.1,2.1 h16.2c1.1,0,2.1-0.9,2.1-2.1v-0.2C61.5,56.9,60.6,56,59.5,56z" class="st18"/><path id="XMLID_190_" d="M143.1,49L143.1,49c-0.5-1.5-1.9-2.6-3.5-2.6c-0.7,0-1.4,0.2-1.9,0.6 c-0.4-2.4-2.4-4.2-4.8-4.2c-2.2,0-4.1,1.5-4.7,3.5c-0.3-0.1-0.6-0.1-0.9-0.1c-1.7,0-3.1,1.2-3.3,2.8h-0.5c-1.4,0-2.5,1.1-2.5,2.5 v0.2c0,1.4,1.1,2.5,2.5,2.5h19.8c1.4,0,2.5-1.1,2.5-2.5v-0.2C145.6,50.1,144.5,49,143.1,49z" class="st18"/><path id="XMLID_178_" d="M143.4,84.5L143.4,84.5c-0.3-0.8-1-1.3-1.8-1.3c-0.4,0-0.7,0.1-1,0.3 c-0.2-1.2-1.2-2.2-2.5-2.2c-1.1,0-2.1,0.8-2.4,1.8c-0.1,0-0.3-0.1-0.5-0.1c-0.9,0-1.6,0.6-1.7,1.5h-0.3c-0.7,0-1.3,0.6-1.3,1.3v0.1 c0,0.7,0.6,1.3,1.3,1.3h10.3c0.7,0,1.3-0.6,1.3-1.3v-0.1C144.7,85.1,144.1,84.5,143.4,84.5z" class="st18"/><g id="XMLID_141_"><path id="XMLID_151_" d="M366.1,37.8h-0.2c-0.8-2.7-3.2-4.6-6.1-4.6c-1.3,0-2.4,0.4-3.4,1c-0.6-4.2-4.3-7.4-8.6-7.4 c-3.9,0-7.2,2.6-8.3,6.1c-0.5-0.1-1-0.2-1.6-0.2c-3,0-5.5,2.2-5.9,5.1h-1c-2.5,0-4.5,2-4.5,4.5v0.3c0,2.5,2,4.5,4.5,4.5h35.2 c2.5,0,4.5-2,4.5-4.5v-0.3C370.6,39.8,368.5,37.8,366.1,37.8z" class="st32"/><path id="XMLID_150_" d="M362,38.9h-0.2c-0.7-2.3-2.8-4.1-5.4-4.1c-1.1,0-2.2,0.3-3,0.9c-0.6-3.7-3.8-6.5-7.6-6.5 c-3.5,0-6.4,2.3-7.4,5.4c-0.4-0.1-0.9-0.2-1.4-0.2c-2.6,0-4.8,1.9-5.2,4.5H331c-2.2,0-3.9,1.8-3.9,3.9v0.3c0,2.2,1.8,3.9,3.9,3.9 h31c2.2,0,3.9-1.8,3.9-3.9v-0.3C365.9,40.7,364.1,38.9,362,38.9z" class="st18"/></g></g><g id="Plane"><path id="XMLID_196_" d="M113.2,53.1h-8.6l-4-7.8c-0.3-0.6,0.1-1.3,0.8-1.3h3c0.3,0,0.5,0.1,0.7,0.3L113.2,53.1z" class="st18"/><path id="XMLID_195_" d="M113.2,53.1h-8.6l-4-7.8c-0.3-0.6,0.1-1.3,0.8-1.3h3c0.3,0,0.5,0.1,0.7,0.3L113.2,53.1z" class="st18"/><path id="XMLID_194_" d="M102.3,43.9h-0.9c-0.7,0-1.1,0.7-0.8,1.3l4,7.8h3.3l-5.5-8.8 C102.4,44.2,102.4,44.1,102.3,43.9z" class="st32"/><path id="XMLID_193_" d="M113.2,53.1h-8.6l-4-7.8c-0.3-0.6,0.1-1.3,0.8-1.3h3c0.3,0,0.5,0.1,0.7,0.3L113.2,53.1z" class="st33"/><path id="XMLID_175_" d="M143,56.1h-0.8c-0.7-2-2.6-3.4-4.9-3.4h-35c0,4.8,3.9,8.7,8.7,8.7h22h9.5h0.5 c1.3,0,2.4-1.1,2.4-2.4v-0.5C145.4,57.2,144.4,56.1,143,56.1z" class="st18"/><path id="XMLID_174_" d="M143,59.4h-0.5H133h-22c-4.1,0-7.6-2.9-8.5-6.7h-0.3c0,4.8,3.9,8.7,8.7,8.7h22h9.5h0.5 c1.3,0,2.4-1.1,2.4-2.4v-0.5c0-0.3-0.1-0.5-0.1-0.8C145,58.7,144.1,59.4,143,59.4z" class="st32"/><path id="XMLID_173_" d="M143,56.1h-0.8c-0.7-2-2.6-3.4-4.9-3.4h-35c0,4.8,3.9,8.7,8.7,8.7h22h9.5h0.5 c1.3,0,2.4-1.1,2.4-2.4v-0.5C145.4,57.2,144.4,56.1,143,56.1z" class="st33"/><path id="XMLID_172_" d="M112.4,55.5h-10.1c-0.6,0-1.2-0.5-1.2-1.2v-0.4c0-0.6,0.5-1.2,1.2-1.2h10.1 c0.6,0,1.2,0.5,1.2,1.2v0.4C113.5,55,113,55.5,112.4,55.5z" class="st18"/><path id="XMLID_171_" d="M132,62.5h-12.4c-0.6,0-1.2-0.5-1.2-1.2v-0.9c0-0.6,0.5-1.2,1.2-1.2H132 c0.6,0,1.2,0.5,1.2,1.2v0.9C133.2,61.9,132.7,62.5,132,62.5z" class="st18"/><path id="XMLID_170_" d="M112.4,55.5h-10.1c-0.6,0-1.2-0.5-1.2-1.2v-0.4c0-0.6,0.5-1.2,1.2-1.2h10.1 c0.6,0,1.2,0.5,1.2,1.2v0.4C113.5,55,113,55.5,112.4,55.5z" class="st33"/><path id="XMLID_169_" d="M132,62.5h-12.4c-0.6,0-1.2-0.5-1.2-1.2v-0.9c0-0.6,0.5-1.2,1.2-1.2H132 c0.6,0,1.2,0.5,1.2,1.2v0.9C133.2,61.9,132.7,62.5,132,62.5z" class="st33"/><line id="XMLID_167_" x1="135.1" x2="139.5" y1="55.5" y2="55.5" class="st34"/><line id="XMLID_166_" x1="130" x2="132.2" y1="55.5" y2="55.5" class="st34"/><line id="XMLID_4_" x1="126.5" x2="128.7" y1="55.5" y2="55.5" class="st34"/><line id="XMLID_3_" x1="123" x2="125.1" y1="55.5" y2="55.5" class="st34"/><line id="XMLID_2_" x1="119.4" x2="121.6" y1="55.5" y2="55.5" class="st34"/><line id="XMLID_1_" x1="115.9" x2="118.1" y1="55.5" y2="55.5" class="st34"/></g><g id="Paarachute"><g id="XMLID_893_"><path id="XMLID_906_" d="M457.3,54.8h2v-0.1c0-0.7,1-1.9,1.6-2.5c0.7-0.8,1.2-2,1.2-3.2c0-2.7-2.2-4.8-4.8-4.8 L457.3,54.8L457.3,54.8z" class="st32"/><path id="XMLID_903_" d="M457.3,54.8h-2v-0.1c0-0.7-1-1.9-1.6-2.5c-0.7-0.8-1.2-2-1.2-3.2c0-2.7,2.2-4.8,4.8-4.8 L457.3,54.8z" class="st18"/><path id="XMLID_902_" d="M457.3,54.8h1.2v-0.1c0-0.7,0.6-1.9,0.9-2.5c0.4-0.8,0.7-2,0.7-3.2c0-2.7-1.2-4.8-2.8-4.8 L457.3,54.8z" class="st18"/><path id="XMLID_898_" d="M457.3,54.8h-1.2v-0.1c0-0.7-0.6-1.9-0.9-2.5c-0.4-0.8-0.7-2-0.7-3.2c0-2.7,1.2-4.8,2.8-4.8 L457.3,54.8z" class="st32"/></g><g id="XMLID_884_"><path id="XMLID_892_" d="M457.9,61.2H457c-0.7,0-1.3-0.6-1.3-1.3v-1.7h3.5v1.7C459.2,60.6,458.6,61.2,457.9,61.2z" class="st18"/><path id="XMLID_891_" d="M456.1,59.9v-1.7h-0.5v1.7c0,0.7,0.6,1.3,1.3,1.3h0.5C456.7,61.2,456.1,60.6,456.1,59.9z" class="st35"/><path id="XMLID_890_" d="M458.4,58.2v1.7c0,0.7-0.6,1.3-1.3,1.3h0.8c0.7,0,1.3-0.6,1.3-1.3v-1.7H458.4z" class="st35"/><polygon id="XMLID_889_" points="455.6 59 459.2 58.5 459.2 58.2 455.6 58.2" class="st36"/><path id="XMLID_888_" d="M457.9,61.2H457c-0.7,0-1.3-0.6-1.3-1.3v-1.7h3.5v1.7C459.2,60.6,458.6,61.2,457.9,61.2z" class="st37"/><path id="XMLID_887_" d="M459.3,58.2h-3.8c-0.2,0-0.3-0.1-0.3-0.3l0,0c0-0.2,0.1-0.3,0.3-0.3h3.8 c0.2,0,0.3,0.1,0.3,0.3l0,0C459.6,58.1,459.5,58.2,459.3,58.2z" class="st18"/><path id="XMLID_885_" d="M459.3,58.2h-3.8c-0.2,0-0.3-0.1-0.3-0.3l0,0c0-0.2,0.1-0.3,0.3-0.3h3.8 c0.2,0,0.3,0.1,0.3,0.3l0,0C459.6,58.1,459.5,58.2,459.3,58.2z" class="st37"/></g><line id="XMLID_883_" x1="456.7" x2="456.7" y1="54.7" y2="57.6" class="st37"/><line id="XMLID_882_" x1="458" x2="458" y1="54.7" y2="57.6" class="st37"/><line id="XMLID_881_" x1="455.3" x2="456.2" y1="54.7" y2="57.6" class="st37"/><line id="XMLID_880_" x1="459.4" x2="458.6" y1="54.8" y2="57.6" class="st37"/></g><g id="Layer_13_1_"><g><path d="M65.9,203.7L65.9,203.7C65.9,203.7,65.4,203.9,65.9,203.7z M70.1,199.5c-4.4-4.6-9.8-8.4-15.8-10.1 c-6.1-1.8-13-1.2-18.3,2.4c7.6,8,18.8,12.5,29.9,11.9c1.6,0.1,6.3,0.2,7.6-0.6c0.3-0.2-0.7-1.4-1.6-2.4 C71.5,200.4,70.4,199.8,70.1,199.5z" class="st1"/><g class="st2"><path d="M71.8,200.7c-0.3-0.3-1.4-0.9-1.6-1.2c-4.4-4.6-9.8-8.4-15.8-10.1c-3-0.8-6.1-1.1-9.1-0.8 c3.5,0.1,7,1.1,10.1,2.7c5.5,2.8,9.9,7.4,13.4,12.6c1.8,0,4-0.2,4.7-0.6C73.8,202.8,72.7,201.7,71.8,200.7z" class="st3"/></g><path d="M75.4,189.9c0.9,2.5,2.1,6.3,1,8.8c-0.8,1.9-2.4,4.8-4.3,4.4c-1.6-2.1-4.9-6.5-7.1-8.2 c-1.8-1.4-4.5-2.9-6.2-4.4c-4.3-3.8-5.9-9-8.3-14.2c4.3,0.4,8.6,1.2,12.8,2.4c2.7,0.8,5.5,1.8,7.6,3.7 C73.1,184.3,74.4,187.1,75.4,189.9z" class="st1"/><path d="M66.2,195c-1.5-1.7-4-3.7-5.3-5.4c-2.9-3.8-3.9-8.1-4.9-12.7c-1.8-0.3-3.5-0.5-5.3-0.7 c2.4,5.2,4,10.4,8.3,14.2c1.6,1.5,4.4,3,6.2,4.4c1,0.8,2.3,2.2,3.5,3.7C67.8,197.2,66.9,195.8,66.2,195z" class="st4"/><path d="M77.6,176.2c1.5,4,1.4,8.3,1.4,12.5c0,1.6,0.4,4.3,0,5.8c-0.3,1.3-1.2,2.5-1.9,3.6c-0.7,0.9-1.5-0.2-2.1-1.1 c-0.5-0.9-1.5-2.4-1.1-2.1c-0.7-2.4-1.1-4-1.8-6.4c-0.6-1.9-1.2-3.8-1.6-5.7c-0.8-4.9,0.1-9.8,1.1-14.6 C74.3,170.3,76.4,173.1,77.6,176.2z" class="st1"/><g><path d="M39.1,192.5c5.5-0.2,10.9,0,16.2,1.5c5,1.4,9.6,3.8,13.8,7c0.2,0.2,0.4-0.2,0.2-0.3 c-4.1-3.1-8.9-5.5-13.9-6.9C50,192.3,44.7,192.2,39.1,192.5C39,192.4,39,192.5,39.1,192.5L39.1,192.5z" class="st5"/></g><g><path d="M52.4,177.9c4.4,2.1,8.5,4.9,12,8.3c3.8,3.7,6.3,8.1,9.2,12.5c0,0.1,0.3,0,0.2-0.1 c-4.9-9.1-11.7-16.7-21.3-20.8C52.4,177.7,52.3,177.8,52.4,177.9L52.4,177.9z" class="st5"/></g><g><path d="M71.8,170.2c2.9,8.6,6.3,16.8,4.3,26c0,0.2,0.2,0.3,0.3,0C78.3,187.5,75.6,178.1,71.8,170.2 C71.8,170.1,71.8,170.1,71.8,170.2L71.8,170.2z" class="st5"/></g><g><path d="M43.1,195.6c0.6-0.6,1.2-1.2,1.8-1.7c0.7-0.5,1.4-0.9,2.2-1.3v-0.1C45.5,193,43.9,194.2,43.1,195.6 C43,195.6,43,195.6,43.1,195.6L43.1,195.6z" class="st5"/></g><g><path d="M47.5,197.8c1.5-2.8,3.8-3.6,6.8-4c0.2,0,0.2-0.3,0-0.3C51.4,193.9,48.5,194.8,47.5,197.8L47.5,197.8 L47.5,197.8z" class="st5"/></g><g><path d="M53,198.2c1.8-1.4,3.5-3.5,6-2.8c0.1,0,0.2-0.2,0-0.2C56.6,194.5,54.6,196.6,53,198.2 C52.9,198.2,52.9,198.2,53,198.2L53,198.2z" class="st5"/></g><g><path d="M58.4,201c1.6-2.1,4-4,6.7-2.5c0.2,0,0.3-0.2,0.1-0.2C62.6,196.9,59.8,198.6,58.4,201 C58.3,201,58.4,201.1,58.4,201L58.4,201z" class="st5"/></g><g><path d="M45.8,189c0.3,1.8,1.9,2.8,3.3,3.8c0.1,0,0.2-0.1,0.1-0.2C47.8,191.7,46.4,190.7,45.8,189 C45.9,189,45.8,189,45.8,189L45.8,189z" class="st5"/></g><g><path d="M51.6,189.4c0.6,1.7,1.8,3.2,3.1,4.4c0.1,0.1,0.3,0,0.2-0.2C53.5,192.4,52.5,191,51.6,189.4L51.6,189.4 L51.6,189.4z" class="st5"/></g><g><path d="M56.5,191.4c0.3,0.8,0.7,1.5,1.2,2.2c0.4,0.5,1,1.5,1.6,1.7c0,0,0.1,0,0.2,0l0,0v-0.2l0,0c0,0-0.1,0-0.2,0 l0,0c0,0,0,0.1,0,0.2c0.2,0-0.6-0.9-0.6-0.9c-0.2-0.3-0.5-0.5-0.7-0.8C57.5,192.8,57,192.1,56.5,191.4 C56.6,191.3,56.5,191.3,56.5,191.4L56.5,191.4z" class="st5"/></g><g><path d="M60.6,193.4c1.1,1.8,2.8,3.5,4.4,4.8c0.2,0.2,0.5-0.1,0.3-0.3c-1.8-1.4-3.1-3-4.6-4.6 C60.7,193.3,60.5,193.4,60.6,193.4L60.6,193.4z" class="st5"/></g><g><path d="M55,183.6c3.1-0.2,5.7,0,8.4,1.6c0.2,0.1,0.3-0.2,0.2-0.3c-2.4-1.5-5.8-2.5-8.6-1.5 C54.8,183.5,54.8,183.6,55,183.6L55,183.6z" class="st5"/></g><g><path d="M59.7,188.7c1.5,0,2.9,0,4.3,0.3c1.3,0.3,2.5,0.8,3.8,1.2c0.2,0,0.2-0.2,0-0.3c-2.6-0.9-5.5-2.1-8.3-1.4 C59.7,188.7,59.7,188.7,59.7,188.7L59.7,188.7z" class="st5"/></g><g><path d="M65.4,193.2c1,0,2.1,0.2,3.1,0.3c1.2,0.2,1.9,0.8,2.7,1.7c0.1,0.1,0.3,0,0.2-0.2c-0.7-0.8-1.4-1.4-2.5-1.7 C67.7,193.1,66.5,193,65.4,193.2C65.4,193.1,65.4,193.2,65.4,193.2L65.4,193.2z" class="st5"/></g><g><path d="M61.2,180.1c0,1.1,0.6,2.2,1.1,3.3c0.3,0.6,0.5,1.8,1.4,1.9c0,0,0.1,0,0-0.1C62.3,184,62.3,181.7,61.2,180.1 C61.3,180,61.2,180,61.2,180.1L61.2,180.1z" class="st5"/></g><g><path d="M65.8,181.4c0.3,3.1,1.2,6.1,2.3,8.9c0,0.1,0.3,0,0.2,0C67.2,187.4,66.6,184.5,65.8,181.4L65.8,181.4 L65.8,181.4z" class="st5"/></g><g><path d="M70.8,187.9c0,2.6,0.6,5.2,1.1,7.8c0,0.2,0.3,0.1,0.3,0c-0.5-2.6-0.8-5.1-1.2-7.7 C70.9,187.8,70.8,187.8,70.8,187.9L70.8,187.9z" class="st5"/></g><g><path d="M70.9,175c1.8,2.1,3.3,4.3,4.5,6.8c0.1,0.2,0.4,0,0.3-0.2c-1.2-2.5-2.7-4.8-4.6-6.8 C70.9,174.8,70.8,174.9,70.9,175L70.9,175z" class="st5"/></g><g><path d="M76.8,175.5c-0.9,1.9-1.1,4.5-1.2,6.6c0,0.2,0.3,0.2,0.3,0c0-1.2,0.2-2.4,0.4-3.7c0.2-1,0.5-1.9,0.6-3 C77,175.4,76.8,175.4,76.8,175.5L76.8,175.5z" class="st5"/></g><g><path d="M73.5,182.9c1.4,2.1,2.2,4.3,3.2,6.6h0.1C76.5,187.1,75.2,184.6,73.5,182.9 C73.5,182.8,73.4,182.8,73.5,182.9L73.5,182.9z" class="st5"/></g><g><path d="M76.9,189.6c0.6-1.5,1.1-3,1.9-4.4c0-0.1-0.1-0.2-0.2-0.1C77.9,186.5,77,188,76.9,189.6 C76.8,189.7,76.8,189.7,76.9,189.6L76.9,189.6z" class="st5"/></g></g></g><g id="XMLID_320_"><polygon points="69.1 202.3 69.9 206.5 82.2 206.5 82.1 204.4 70.6 201.6" class="st38"/><polygon id="XMLID_327_" points="77.5 198 73.1 197.7 76.6 193.7" class="st11"/><polygon id="XMLID_326_" points="74 201.9 69.7 201.6 73.1 197.7" class="st11"/><polygon id="XMLID_6_" points="82.5 205.8 70.5 205.8 80.9 194" class="st11"/><polygon id="XMLID_324_" points="82.5 205.8 74 201.9 77.5 197.9" class="st39"/><polygon id="XMLID_323_" points="69.7 201.6 70.5 205.8 73.9 201.9" class="st39"/><polygon id="XMLID_5_" points="73.1 197.7 74 201.9 77.5 198" class="st39"/><polygon id="XMLID_321_" points="76.6 193.7 77.5 197.9 80.9 194" class="st39"/></g><path d="M290.3,163.3c0,0-0.1,0-0.2,0c-0.4,0-0.6-0.2-0.7-0.4c0-0.2,0.2-0.5,0.4-0.8c0.3-0.3,0.6-0.6,1-1	c0.2-0.1,0.3-0.3,0.5-0.4c0.1-0.1,0.1-0.2,0.2-0.3c0.3-0.4,0.9-0.8,1.2-1.3c0.1-0.1,0.1-0.2,0.1-0.3c-0.1-0.1-0.4-0.1-0.7-0.1	c-0.3,0.1-0.5,0.2-0.7,0.3v-0.1c-0.1,0-0.2-0.1-0.4,0h-0.1c-0.1,0-0.2,0.1-0.2,0.1c-0.1,0-0.1-0.1-0.2-0.1c-0.2-0.1-0.5-0.1-0.7-0.1	c-0.8-0.1-1.7-0.1-2.7,0.1c-0.1,0-0.2,0-0.3,0l0.2-0.2c0.1-0.1,0-0.2-0.2-0.1h-0.3c0,0-0.1,0-0.2,0l-4.1,0.5c-0.1,0-0.3,0.1-0.3,0.1	l-1.1,1c-0.1,0.1,0,0.2,0.2,0.1l2.4,0.1l0.2-0.1l-1,1c-0.2,0.2-0.1,0.3,0.3,0.3h1.1l-0.6,0.6l-2.4,0.2l-3.1,0.2l-0.1,0.1l0,0	l-3.5-0.1l-1.4-2.7l0.4-0.6l-0.1-0.6l0.4-0.5l-0.1-0.5c-0.3,0.1-0.4,0.3-0.4,0.4v0.1l-0.4,0.5l0,0h-0.1v-0.2l-0.9-0.5l-0.1,0.1	c-0.1,0.1-0.1,0.1,0,0.2l0.6,0.4v0.1l-0.1,0.1l-0.2-0.2l-1.2-0.2l-0.2,0.2l0.8,0.1l0.4,0.2l-0.2,0.2l-1.4-0.2v0.1c0,0,0,0,0.1,0.1	l1,0.2l0.1,0.6l0.3,0.3l0.2,3l4.6,0.4l0,0l0,0l-0.1,0.1l1.9,0.4l-1.1,1c-0.4,0.4-0.6,0.7-0.8,1.1l-0.1,0.4l-4.8,4.4h0.1l-0.3,0.2	l0,0l-6.8,4.5l-1.3,4.6l0,0l-0.3,0.3l-2.6,0.5l0,0l-2.3,0.4c0,0,0,0-0.1,0c-0.1,0.1-0.6,0.6,1.3,0.5c0.2,0,0.4,0.1,0.7,0.1	c1.6,0,4.9-0.1,4.9-0.1c0.3-0.1,0.6-0.3,0.7-0.4l0.2-0.2l0,0c0,0,0-0.1,0.1-0.1l0,0l0,0l0,0c0-0.1,0-0.1-0.1-0.2l0.9-0.9h-0.2h0.2	c0,0,5.3-3.8,5.8-5.4l4.1-3.2l0,0l0.2-0.2l0,0l-0.1,0.3c0.9-0.4,1.7-0.8,2.2-1.3l2.7-2.7c0.2,0,0.4-0.1,0.6-0.1l0.8-0.3l2.8-2.2h0.3	l2.4-2.2c0.2-0.2,0.1-0.3-0.1-0.3l-2.2-0.6l0.8-0.7c0.1,0,0.3-0.1,0.5-0.1c0.4-0.1,0.9-0.3,1.3-0.4c-0.2,0.1-0.4,0.2-0.5,0.3	c-0.4,0.3-0.8,0.6-0.7,0.9c0,0.1,0.1,0.2,0.2,0.2c0.3,0.2,0.7,0.3,1.1,0.4l0,0c0,0,0,0,0.1,0l0,0l0,0c0-0.1,0-0.2,0.1-0.3	c0.2,0.1,0.4,0.2,0.6,0.3C289.5,163.4,289.8,163.4,290.3,163.3C290.3,163.4,290.2,163.3,290.3,163.3	C290.2,163.3,290.3,163.3,290.3,163.3z M282.4,163.5L282.4,163.5L282.4,163.5L282.4,163.5z M269,175.9l-0.1,0.3l0,0v0.1l-1,1.1l0,0	l-0.5,0.6c0.2-0.4,0.2-0.8-0.1-1.1L269,175.9z" class="st25"/><g id="Layer_17"><g><path d="M262.9,178l-0.2,1.4l-3.7,1.8l-2.8,0.6c0,0,0.2,1.2,2.4,1.3c2.2,0.1,6.5-0.2,6.5-0.2l0,0 c0.3-0.3,0.4-0.7,0.4-1.1v-0.5c0-0.3-0.2-0.6-0.5-0.7l0,0v-2.3L262.9,178z" class="st40"/><path d="M265.6,181.3c0-0.1,0-0.2-0.1-0.3c-0.2,0.1-0.6,0.7-0.8,0.7c-1.4,0-3,0.2-4.2,0.1c-1.2,0-1.9-0.1-2.2-0.4 l-2.1,0.5c0,0,0.2,1.2,2.4,1.3c2.2,0.1,6.5-0.2,6.5-0.2c0.3-0.3,0.4-0.7,0.4-1.1L265.6,181.3L265.6,181.3z" class="st41"/><path d="M260.5,178.5v0.7l-5.5,2.3c0,0-0.3,1.8,3.1,1.4l6-1.2c0,0,0.2-0.7,0.3-1.3c0.1-0.4-0.1-0.8-0.4-1l0,0 l-1.2-1.2L260.5,178.5z" class="st11"/><path d="M264.4,179.8c-0.3,0.5-0.7,0.8-1.3,1l-2.3,0.7c-2.9,0.3-3.2-0.7-3.2-1.1l-2.6,1.1c0,0-0.3,1.8,3.1,1.4l6-1.2 c0,0,0.2-0.7,0.3-1.3C264.6,180.2,264.5,180,264.4,179.8z" class="st26"/><path d="M266,154.6l-1,9.8c1.8,4.2,0.1,13.9,0.1,13.9h-2.2l-1.3-12.5l-1.3-3.5L266,154.6z" class="st10"/><g><path d="M261.4,165.5l3.5-8.5l0.8-0.7c0,0,0,0,0.1-0.1l0.2-1.6l-5.8,7.7L261.4,165.5z" class="st13"/><path d="M262.8,178.3h0.6c0,0,0.5-6.2-1.7-9.8L262.8,178.3z" class="st13"/></g><path d="M259,151.2l-3.4,15.6l5,11.6l2.4-0.2c0,0,0.6-8.1-2.7-11.1l4.1-10.1l0.8-0.7c0.7-0.6,1.2-1.5,1.2-2.4v-3.5 L259,151.2z" class="st29"/><g><path d="M269.9,131.8c-0.4-0.6-0.5-1.3-0.6-1.9c-0.1-0.8-0.1-1.6,0-2.4c0-0.3,0.1-0.7,0-1c0-0.2-0.1-0.5-0.2-0.7 c-0.2-1-0.1-2.2-0.3-3.2c0-0.2-0.1-0.5-0.3-0.7c-0.3-0.3-0.7-0.3-1-0.2c-0.3,0.2-0.5,0.5-0.6,0.9v-0.1c-0.5,1.3-0.2,2.7-0.5,4.1 c-0.2,0.8-0.4,1.5-0.6,2.3c-0.1,0.8-0.1,1.7,0.4,2.3c0.2,0.2,0.4,0.4,0.7,0.6c0.7,0.5,1.4,0.8,2.2,1.1c-0.2-0.2-0.4-0.5-0.4-0.8 c0.4,0.3,0.8,0.6,1.3,0.8s1,0.2,1.5,0C271,132.8,270.3,132.4,269.9,131.8z" class="st42"/></g><g><g><path d="M267.7,132c-0.2-0.2-0.5-0.3-0.7-0.6c-0.5-0.6-0.6-1.5-0.4-2.3c0.1-0.8,0.4-1.5,0.6-2.3 c0.2-1.3,0-3.8,0-3.8c0-0.4-0.2-0.5-0.2-0.5c-0.5,1.3-0.2,2.7-0.5,4.1c-0.2,0.8-0.4,1.5-0.6,2.3c-0.1,0.8-0.1,1.7,0.4,2.3 c0.2,0.2,0.4,0.4,0.7,0.6c0.7,0.5,1.4,0.8,2.2,1.1c0,0,0,0-0.1-0.1C268.6,132.5,268.1,132.3,267.7,132z" class="st43"/></g><g><path d="M271.5,132.8h0.1c-0.1,0-0.2,0-0.3,0C271.4,132.8,271.5,132.8,271.5,132.8z" class="st43"/></g><g><path d="M269.5,132.2c0,0.1,0,0.2,0.1,0.3c0.2,0.1,0.4,0.2,0.6,0.3c0.2,0,0.3,0.1,0.4,0.1 C270.1,132.7,269.8,132.5,269.5,132.2z" class="st43"/></g></g><g><path d="M266.9,122.7c-0.2,0.1-0.4,0.1-0.6,0s-0.3-0.2-0.5-0.3c-0.3-0.2-0.8-0.2-1.2-0.3c-1.3-0.2-2.7-0.3-3.7,0.4 h-0.1c1,2.4,2.2,4.8,3.4,7.2c0.2-0.2,0.5-0.4,0.7-0.6c1-0.9,2.1-1.9,2.3-3.2C267.3,124.8,266.8,123.8,266.9,122.7z" class="st42"/></g><rect width="3.5" height="7" x="261" y="128.1" class="st11"/><path d="M262.4,130.1l-1.3-0.3V128h3.5v0.3C264.6,129.5,263.5,130.4,262.4,130.1z" class="st13"/><path d="M258.7,126v3.1c0,0.5,0.4,0.8,0.8,0.8h2.1c1.3,0,2.3-1,2.3-2.3v-1.2v-1.5c0-0.4-0.2-0.8-0.5-1l-1.4-1.1 c-0.4-0.3-0.9-0.3-1.3-0.1C260.1,123,259.3,123.9,258.7,126z" class="st11"/><g><path d="M260.6,122.4l1.3,0.7c0.6,0.3,1,0.8,1,1.5v0.5l-3.2-0.7L260.6,122.4z" class="st28"/><path d="M255.1,126.4l3.4,0.3l0.3-0.3l1.3,0.2c0,0,1.5,0.5,3.1-0.8l0.3-1.1l-4-2L255.1,126.4z" class="st28"/><path d="M255.8,125.8l4.8-1.3c0.2,0,0.3-0.2,0.3-0.3v-2c0-0.2-0.2-0.4-0.5-0.3l-4.8,1.3c-0.2,0-0.3,0.2-0.3,0.3v2 C255.3,125.6,255.5,125.8,255.8,125.8z" class="st28"/><path d="M260.6,124.5l6.2,3c0,0,0.1,0,0.1-0.1v-1.2l-6.3-3.1L260.6,124.5L260.6,124.5z" class="st3"/><path d="M266.3,127.3c0,0,0.1,0,0.1-0.1V126l0.4,0.2v1.2c0,0.1-0.1,0.1-0.1,0.1L266.3,127.3z" class="st28"/><path d="M265.5,126.9c0,0,0.1,0,0.1-0.1v-1.2l0.4,0.2v1.2c0,0.1-0.1,0.1-0.1,0.1L265.5,126.9z" class="st28"/><path d="M264.6,126.5c0,0,0.1,0,0.1-0.1v-1.2l0.4,0.2v1.2c0,0.1-0.1,0.1-0.1,0.1L264.6,126.5z" class="st28"/><path d="M263.7,126c0,0,0.1,0,0.1-0.1v-1.2l0.4,0.2v1.2c0,0.1-0.1,0.1-0.1,0.1L263.7,126z" class="st28"/><path d="M262.8,125.6c0,0,0.1,0,0.1-0.1v-1.2l0.4,0.2v1.2c0,0.1-0.1,0.1-0.1,0.1L262.8,125.6z" class="st28"/><path d="M261.9,125.2c0,0,0.1,0,0.1-0.1V124l0.4,0.2v1.2c0,0.1-0.1,0.1-0.1,0.1L261.9,125.2z" class="st28"/><path d="M261,124.7c0,0,0.1,0,0.1-0.1v-1.2l0.4,0.2v1.2c0,0.1-0.1,0.1-0.1,0.1L261,124.7z" class="st28"/><path d="M255.1,126.4l4.8-1.3c0.2,0,0.3-0.2,0.3-0.3v-2.7c0-0.2-0.2-0.4-0.5-0.3l-4.8,1.3c-0.2,0-0.3,0.2-0.3,0.3 v2.7C254.7,126.3,254.9,126.5,255.1,126.4z" class="st3"/><ellipse cx="257.2" cy="124.1" class="st28" rx=".3" ry=".5"/></g><path d="M264,126.3c0,0,0.8-0.7,1.2,0v1.1c0,0.4-0.2,0.8-0.6,1c-0.2,0.1-0.4,0.1-0.7,0L264,126.3z" class="st11"/><path d="M266.9,123.6l-0.7-0.7c-0.2-0.2-0.1-0.4,0-0.5l0.1-0.1c0.2-0.2,0.4-0.1,0.5,0l0.7,0.7c0.2,0.2,0.1,0.4,0,0.5 l-0.1,0.1C267.3,123.7,267.1,123.7,266.9,123.6z" class="st3"/><path d="M265.5,155.9c0.5-0.5,0.8-1.3,0.8-2v-3.5l-7.3,0.8l-0.9,4v0.4c3.5,0.8,6.2-2.7,6.2-2.7L265.5,155.9z" class="st13"/><path d="M257.2,132.6v7c0,0.9,0.2,1.8,0.5,2.7l0.4,1v11.3c3.5,0.8,6.2-2.7,6.2-2.7l1.8,4.6l0,0c0.7-1,1.1-2.2,1-3.3 l-0.5-10.3l0.2-10.3l-2.2,0.5l-0.3,0.3c-0.9,1-2.5,0.9-3.3-0.3l0,0L257.2,132.6z" class="st26"/><path d="M240.5,124.2l-2.1-0.4l0.2,0.3c0,0.1,0.1,0.1,0.2,0.2l1.7,0.5l1,1.5l0.9,0.8l4.8,7.8l6.8,1v-3.4l-5-0.3 l-5.8-6.8L243,124l-0.9-1.4l-0.3-1.4l-1-1.3c-0.2,0.3-0.2,0.7,0.1,1l0.2,0.3l0.3,1.3l0,0l-0.2-0.1L241,122l-1.9-1.2v0.3 c0,0.2,0.1,0.3,0.2,0.5l1.4,1.1l0.1,0.3l-0.1,0.2l-0.6-0.5l-1.8-0.4v0.5l1.3,0.3l0.9,0.6" class="st11"/><path d="M243,124L243,124L243,124l-0.7-0.2c-0.2,0-0.3,0-0.4,0.1l-0.6,0.5v0.1l0.6-0.4c0.1-0.1,0.3-0.1,0.4-0.1H243 L243,124z" class="st13"/><polygon points="253.3 135.7 254.1 135.8 254.1 132.5 253.8 132.5" class="st13"/><polygon points="261 131.3 258.1 131.8 254.1 132.2 254.1 136.1 257.2 137.1 261 133.1" class="st26"/><path d="M266.6,142.9v-0.4c-0.1-0.2-0.2-0.3-0.3-0.4c0.1-0.1,0.2-0.2,0.3-0.2v-1.7c-0.1,0-0.2,0-0.2-0.1 c0.1-0.2,0.1-0.4-0.1-0.6l0,0c0.1-0.1,0.2-0.2,0.4-0.2v-0.8c-0.1-0.1-0.3-0.1-0.5,0c-0.3,0.2-0.7,0.4-1,0.6 c-0.3,0.2-0.3,0.6,0,0.8l0,0c-0.3,0.2-0.3,0.7,0.1,0.8c0.3,0.1,0.7,0.2,1,0.3c-0.3,0.2-0.8,0.4-1,0.6c-0.2,0.2-0.2,0.4-0.1,0.6 c0,0.1,0.2,0.3,0.3,0.4c0.4,1.1,0,0.9,0.1,1.7c0,0.3,0.1,0.6,0.2,0.9c-0.5-0.3,0.8,0.3,0.5-0.3S266.6,142.9,266.6,142.9z" class="st44"/><path d="M266.3,139.9l-0.4,3.5l-3-1.6l-0.2-2l-0.8-0.8l-0.3-1.2l-1.2-1.4l0,0c-0.2,0.3-0.1,0.7,0.1,1l0.4,0.7v1.7 l-0.3,0.1l-1-1.4l0,0c-0.3,0.3-0.3,0.7-0.2,1.1l2.2,3.5l5.2,3.8l0,0l-0.2-3.9v-3h-0.3L266.3,139.9L266.3,139.9z" class="st45"/><path d="M268.6,139.4L268,145l-0.6,0.8c-0.3,0.4-0.8,0.5-1.2,0.2l-4.6-3.6l-2.2-3.5c-0.2-0.3-0.2-0.8,0.2-1.1l0,0 l1,1.4l0.3-0.1v-1.7l-0.6-0.9c-0.2-0.3-0.2-0.6,0-0.8l0.1-0.1l1.2,1.6l0.3,1.2l0.8,0.8l0.2,2l3,1.6l0.4-3.5L268.6,139.4 L268.6,139.4z" class="st11"/><polygon points="268.6 139.4 266.3 139.4 266.3 139.9 268.5 139.9" class="st13"/><path d="M264.6,131.3l3.9,1.6c0.3,0.2,0.6,0.5,0.6,0.8v5.6H266v-2.5l-1.3-3.8v-1.7L264.6,131.3L264.6,131.3z" class="st26"/></g></g></svg>